{
  "header": {
    "PPQ": 96,
    "timeSignature": [
      4,
      4
    ],
    "bpm": 120,
    "name": ""
  },
  "startTime": 0,
  "duration": 192,
  "tracks": [
    {
      "startTime": 0,
      "duration": 192,
      "length": 552,
      "notes": [
        {
          "name": "C2",
          "midi": 36,
          "time": 0,
          "velocity": 1,
          "duration": 0.125
        },
        {
          "name": "C2",
          "midi": 36,
          "time": 2,
          "velocity": 1,
          "duration": 0.125
        },
        {
          "name": "D2",
          "midi": 38,
          "time": 2.25,
          "velocity": 1,
          "duration": 0.125
        },
        {
          "name": "D2",
          "midi": 38,
          "time": 2.5,
          "velocity": 1,
          "duration": 0.125
        },
        {
          "name": "D2",
          "midi": 38,
          "time": 3.5,
          "velocity": 1,
          "duration": 0.125
        },
        {
          "name": "D#2",
          "midi": 39,
          "time": 3.75,
          "velocity": 1,
          "duration": 0.125
        },
        {
          "name": "D2",
          "midi": 38,
          "time": 3.875,
          "velocity": 1,
          "duration": 0.125
        },
        {
          "name": "C2",
          "midi": 36,
          "time": 4,
          "velocity": 1,
          "duration": 0.125
        },
        {
          "name": "C2",
          "midi": 36,
          "time": 6,
          "velocity": 1,
          "duration": 0.125
        },
        {
          "name": "D2",
          "midi": 38,
          "time": 6.25,
          "velocity": 1,
          "duration": 0.125
        },
        {
          "name": "D2",
          "midi": 38,
          "time": 6.5,
          "velocity": 1,
          "duration": 0.125
        },
        {
          "name": "D2",
          "midi": 38,
          "time": 7.5,
          "velocity": 1,
          "duration": 0.125
        },
        {
          "name": "D#2",
          "midi": 39,
          "time": 7.75,
          "velocity": 1,
          "duration": 0.125
        },
        {
          "name": "D2",
          "midi": 38,
          "time": 7.875,
          "velocity": 1,
          "duration": 0.125
        },
        {
          "name": "C2",
          "midi": 36,
          "time": 8,
          "velocity": 1,
          "duration": 0.125
        },
        {
          "name": "C2",
          "midi": 36,
          "time": 10,
          "velocity": 1,
          "duration": 0.125
        },
        {
          "name": "D2",
          "midi": 38,
          "time": 10.25,
          "velocity": 1,
          "duration": 0.125
        },
        {
          "name": "D2",
          "midi": 38,
          "time": 10.5,
          "velocity": 1,
          "duration": 0.125
        },
        {
          "name": "D2",
          "midi": 38,
          "time": 11.5,
          "velocity": 1,
          "duration": 0.125
        },
        {
          "name": "D#2",
          "midi": 39,
          "time": 11.75,
          "velocity": 1,
          "duration": 0.125
        },
        {
          "name": "D2",
          "midi": 38,
          "time": 11.875,
          "velocity": 1,
          "duration": 0.125
        },
        {
          "name": "C2",
          "midi": 36,
          "time": 12,
          "velocity": 1,
          "duration": 0.125
        },
        {
          "name": "C2",
          "midi": 36,
          "time": 14,
          "velocity": 1,
          "duration": 0.125
        },
        {
          "name": "D2",
          "midi": 38,
          "time": 14.25,
          "velocity": 1,
          "duration": 0.125
        },
        {
          "name": "D2",
          "midi": 38,
          "time": 14.5,
          "velocity": 1,
          "duration": 0.125
        },
        {
          "name": "D2",
          "midi": 38,
          "time": 15.5,
          "velocity": 1,
          "duration": 0.125
        },
        {
          "name": "D#2",
          "midi": 39,
          "time": 15.75,
          "velocity": 1,
          "duration": 0.125
        },
        {
          "name": "D2",
          "midi": 38,
          "time": 15.875,
          "velocity": 1,
          "duration": 0.125
        },
        {
          "name": "C2",
          "midi": 36,
          "time": 16,
          "velocity": 1,
          "duration": 0.125
        },
        {
          "name": "C2",
          "midi": 36,
          "time": 18,
          "velocity": 1,
          "duration": 0.125
        },
        {
          "name": "D2",
          "midi": 38,
          "time": 18.25,
          "velocity": 1,
          "duration": 0.125
        },
        {
          "name": "D2",
          "midi": 38,
          "time": 18.5,
          "velocity": 1,
          "duration": 0.125
        },
        {
          "name": "D2",
          "midi": 38,
          "time": 19.5,
          "velocity": 1,
          "duration": 0.125
        },
        {
          "name": "D#2",
          "midi": 39,
          "time": 19.75,
          "velocity": 1,
          "duration": 0.125
        },
        {
          "name": "D2",
          "midi": 38,
          "time": 19.875,
          "velocity": 1,
          "duration": 0.125
        },
        {
          "name": "C2",
          "midi": 36,
          "time": 20,
          "velocity": 1,
          "duration": 0.125
        },
        {
          "name": "C2",
          "midi": 36,
          "time": 22,
          "velocity": 1,
          "duration": 0.125
        },
        {
          "name": "D2",
          "midi": 38,
          "time": 22.25,
          "velocity": 1,
          "duration": 0.125
        },
        {
          "name": "D2",
          "midi": 38,
          "time": 22.5,
          "velocity": 1,
          "duration": 0.125
        },
        {
          "name": "D2",
          "midi": 38,
          "time": 23.5,
          "velocity": 1,
          "duration": 0.125
        },
        {
          "name": "D#2",
          "midi": 39,
          "time": 23.75,
          "velocity": 1,
          "duration": 0.125
        },
        {
          "name": "D2",
          "midi": 38,
          "time": 23.875,
          "velocity": 1,
          "duration": 0.125
        },
        {
          "name": "C2",
          "midi": 36,
          "time": 24,
          "velocity": 1,
          "duration": 0.125
        },
        {
          "name": "C2",
          "midi": 36,
          "time": 26,
          "velocity": 1,
          "duration": 0.125
        },
        {
          "name": "D2",
          "midi": 38,
          "time": 26.25,
          "velocity": 1,
          "duration": 0.125
        },
        {
          "name": "D2",
          "midi": 38,
          "time": 26.5,
          "velocity": 1,
          "duration": 0.125
        },
        {
          "name": "D2",
          "midi": 38,
          "time": 27.5,
          "velocity": 1,
          "duration": 0.125
        },
        {
          "name": "D#2",
          "midi": 39,
          "time": 27.75,
          "velocity": 1,
          "duration": 0.125
        },
        {
          "name": "D2",
          "midi": 38,
          "time": 27.875,
          "velocity": 1,
          "duration": 0.125
        },
        {
          "name": "C2",
          "midi": 36,
          "time": 28,
          "velocity": 1,
          "duration": 0.125
        },
        {
          "name": "C2",
          "midi": 36,
          "time": 30,
          "velocity": 1,
          "duration": 0.125
        },
        {
          "name": "D2",
          "midi": 38,
          "time": 30.25,
          "velocity": 1,
          "duration": 0.125
        },
        {
          "name": "D2",
          "midi": 38,
          "time": 30.5,
          "velocity": 1,
          "duration": 0.125
        },
        {
          "name": "D2",
          "midi": 38,
          "time": 31.5,
          "velocity": 1,
          "duration": 0.125
        },
        {
          "name": "D#2",
          "midi": 39,
          "time": 31.75,
          "velocity": 1,
          "duration": 0.125
        },
        {
          "name": "D2",
          "midi": 38,
          "time": 31.875,
          "velocity": 1,
          "duration": 0.125
        },
        {
          "name": "D2",
          "midi": 38,
          "time": 32.25,
          "velocity": 1,
          "duration": 0.125
        },
        {
          "name": "F#2",
          "midi": 42,
          "time": 32.5,
          "velocity": 1,
          "duration": 0.125
        },
        {
          "name": "D2",
          "midi": 38,
          "time": 33.25,
          "velocity": 1,
          "duration": 0.125
        },
        {
          "name": "F#2",
          "midi": 42,
          "time": 33.5,
          "velocity": 1,
          "duration": 0.125
        },
        {
          "name": "D2",
          "midi": 38,
          "time": 34.25,
          "velocity": 1,
          "duration": 0.125
        },
        {
          "name": "F#2",
          "midi": 42,
          "time": 34.5,
          "velocity": 1,
          "duration": 0.125
        },
        {
          "name": "D2",
          "midi": 38,
          "time": 35.25,
          "velocity": 1,
          "duration": 0.125
        },
        {
          "name": "F#2",
          "midi": 42,
          "time": 35.5,
          "velocity": 1,
          "duration": 0.125
        },
        {
          "name": "D#2",
          "midi": 39,
          "time": 35.875,
          "velocity": 1,
          "duration": 0.125
        },
        {
          "name": "D2",
          "midi": 38,
          "time": 36.25,
          "velocity": 1,
          "duration": 0.125
        },
        {
          "name": "F#2",
          "midi": 42,
          "time": 36.5,
          "velocity": 1,
          "duration": 0.125
        },
        {
          "name": "D2",
          "midi": 38,
          "time": 37.25,
          "velocity": 1,
          "duration": 0.125
        },
        {
          "name": "F#2",
          "midi": 42,
          "time": 37.5,
          "velocity": 1,
          "duration": 0.125
        },
        {
          "name": "D2",
          "midi": 38,
          "time": 38.25,
          "velocity": 1,
          "duration": 0.125
        },
        {
          "name": "F#2",
          "midi": 42,
          "time": 38.5,
          "velocity": 1,
          "duration": 0.125
        },
        {
          "name": "D2",
          "midi": 38,
          "time": 39.25,
          "velocity": 1,
          "duration": 0.125
        },
        {
          "name": "F#2",
          "midi": 42,
          "time": 39.5,
          "velocity": 1,
          "duration": 0.125
        },
        {
          "name": "D#2",
          "midi": 39,
          "time": 39.875,
          "velocity": 1,
          "duration": 0.125
        },
        {
          "name": "D2",
          "midi": 38,
          "time": 40.25,
          "velocity": 1,
          "duration": 0.125
        },
        {
          "name": "F#2",
          "midi": 42,
          "time": 40.5,
          "velocity": 1,
          "duration": 0.125
        },
        {
          "name": "D2",
          "midi": 38,
          "time": 41.25,
          "velocity": 1,
          "duration": 0.125
        },
        {
          "name": "F#2",
          "midi": 42,
          "time": 41.5,
          "velocity": 1,
          "duration": 0.125
        },
        {
          "name": "D2",
          "midi": 38,
          "time": 42.25,
          "velocity": 1,
          "duration": 0.125
        },
        {
          "name": "F#2",
          "midi": 42,
          "time": 42.5,
          "velocity": 1,
          "duration": 0.125
        },
        {
          "name": "D2",
          "midi": 38,
          "time": 43.25,
          "velocity": 1,
          "duration": 0.125
        },
        {
          "name": "F#2",
          "midi": 42,
          "time": 43.5,
          "velocity": 1,
          "duration": 0.125
        },
        {
          "name": "D#2",
          "midi": 39,
          "time": 43.875,
          "velocity": 1,
          "duration": 0.125
        },
        {
          "name": "D2",
          "midi": 38,
          "time": 44.25,
          "velocity": 1,
          "duration": 0.125
        },
        {
          "name": "F#2",
          "midi": 42,
          "time": 44.5,
          "velocity": 1,
          "duration": 0.125
        },
        {
          "name": "D2",
          "midi": 38,
          "time": 45.25,
          "velocity": 1,
          "duration": 0.125
        },
        {
          "name": "F#2",
          "midi": 42,
          "time": 45.5,
          "velocity": 1,
          "duration": 0.125
        },
        {
          "name": "D2",
          "midi": 38,
          "time": 46.25,
          "velocity": 1,
          "duration": 0.125
        },
        {
          "name": "F#2",
          "midi": 42,
          "time": 46.5,
          "velocity": 1,
          "duration": 0.125
        },
        {
          "name": "D2",
          "midi": 38,
          "time": 47.25,
          "velocity": 1,
          "duration": 0.125
        },
        {
          "name": "F#2",
          "midi": 42,
          "time": 47.5,
          "velocity": 1,
          "duration": 0.125
        },
        {
          "name": "D#2",
          "midi": 39,
          "time": 47.875,
          "velocity": 1,
          "duration": 0.125
        },
        {
          "name": "D2",
          "midi": 38,
          "time": 48.25,
          "velocity": 1,
          "duration": 0.125
        },
        {
          "name": "F#2",
          "midi": 42,
          "time": 48.5,
          "velocity": 1,
          "duration": 0.125
        },
        {
          "name": "D2",
          "midi": 38,
          "time": 49.25,
          "velocity": 1,
          "duration": 0.125
        },
        {
          "name": "F#2",
          "midi": 42,
          "time": 49.5,
          "velocity": 1,
          "duration": 0.125
        },
        {
          "name": "D2",
          "midi": 38,
          "time": 50.25,
          "velocity": 1,
          "duration": 0.125
        },
        {
          "name": "F#2",
          "midi": 42,
          "time": 50.5,
          "velocity": 1,
          "duration": 0.125
        },
        {
          "name": "D2",
          "midi": 38,
          "time": 51.25,
          "velocity": 1,
          "duration": 0.125
        },
        {
          "name": "F#2",
          "midi": 42,
          "time": 51.5,
          "velocity": 1,
          "duration": 0.125
        },
        {
          "name": "D#2",
          "midi": 39,
          "time": 51.875,
          "velocity": 1,
          "duration": 0.125
        },
        {
          "name": "D2",
          "midi": 38,
          "time": 52.25,
          "velocity": 1,
          "duration": 0.125
        },
        {
          "name": "F#2",
          "midi": 42,
          "time": 52.5,
          "velocity": 1,
          "duration": 0.125
        },
        {
          "name": "D2",
          "midi": 38,
          "time": 53.25,
          "velocity": 1,
          "duration": 0.125
        },
        {
          "name": "F#2",
          "midi": 42,
          "time": 53.5,
          "velocity": 1,
          "duration": 0.125
        },
        {
          "name": "D2",
          "midi": 38,
          "time": 54.25,
          "velocity": 1,
          "duration": 0.125
        },
        {
          "name": "F#2",
          "midi": 42,
          "time": 54.5,
          "velocity": 1,
          "duration": 0.125
        },
        {
          "name": "D2",
          "midi": 38,
          "time": 55.25,
          "velocity": 1,
          "duration": 0.125
        },
        {
          "name": "F#2",
          "midi": 42,
          "time": 55.5,
          "velocity": 1,
          "duration": 0.125
        },
        {
          "name": "D#2",
          "midi": 39,
          "time": 55.875,
          "velocity": 1,
          "duration": 0.125
        },
        {
          "name": "D2",
          "midi": 38,
          "time": 56.25,
          "velocity": 1,
          "duration": 0.125
        },
        {
          "name": "F#2",
          "midi": 42,
          "time": 56.5,
          "velocity": 1,
          "duration": 0.125
        },
        {
          "name": "D2",
          "midi": 38,
          "time": 57.25,
          "velocity": 1,
          "duration": 0.125
        },
        {
          "name": "F#2",
          "midi": 42,
          "time": 57.5,
          "velocity": 1,
          "duration": 0.125
        },
        {
          "name": "D2",
          "midi": 38,
          "time": 58.25,
          "velocity": 1,
          "duration": 0.125
        },
        {
          "name": "F#2",
          "midi": 42,
          "time": 58.5,
          "velocity": 1,
          "duration": 0.125
        },
        {
          "name": "D2",
          "midi": 38,
          "time": 59.25,
          "velocity": 1,
          "duration": 0.125
        },
        {
          "name": "F#2",
          "midi": 42,
          "time": 59.5,
          "velocity": 1,
          "duration": 0.125
        },
        {
          "name": "D#2",
          "midi": 39,
          "time": 59.875,
          "velocity": 1,
          "duration": 0.125
        },
        {
          "name": "D2",
          "midi": 38,
          "time": 60.25,
          "velocity": 1,
          "duration": 0.125
        },
        {
          "name": "F#2",
          "midi": 42,
          "time": 60.5,
          "velocity": 1,
          "duration": 0.125
        },
        {
          "name": "D2",
          "midi": 38,
          "time": 61.25,
          "velocity": 1,
          "duration": 0.125
        },
        {
          "name": "F#2",
          "midi": 42,
          "time": 61.5,
          "velocity": 1,
          "duration": 0.125
        },
        {
          "name": "D2",
          "midi": 38,
          "time": 62.25,
          "velocity": 1,
          "duration": 0.125
        },
        {
          "name": "F#2",
          "midi": 42,
          "time": 62.5,
          "velocity": 1,
          "duration": 0.125
        },
        {
          "name": "D2",
          "midi": 38,
          "time": 63.25,
          "velocity": 1,
          "duration": 0.125
        },
        {
          "name": "F#2",
          "midi": 42,
          "time": 63.5,
          "velocity": 1,
          "duration": 0.125
        },
        {
          "name": "D#2",
          "midi": 39,
          "time": 63.875,
          "velocity": 1,
          "duration": 0.125
        },
        {
          "name": "C2",
          "midi": 36,
          "time": 64.25,
          "velocity": 1,
          "duration": 0.125
        },
        {
          "name": "C2",
          "midi": 36,
          "time": 64.5,
          "velocity": 1,
          "duration": 0.125
        },
        {
          "name": "D2",
          "midi": 38,
          "time": 64.75,
          "velocity": 1,
          "duration": 0.125
        },
        {
          "name": "C2",
          "midi": 36,
          "time": 65.25,
          "velocity": 1,
          "duration": 0.125
        },
        {
          "name": "C2",
          "midi": 36,
          "time": 65.5,
          "velocity": 1,
          "duration": 0.125
        },
        {
          "name": "C2",
          "midi": 36,
          "time": 66.25,
          "velocity": 1,
          "duration": 0.125
        },
        {
          "name": "C2",
          "midi": 36,
          "time": 66.5,
          "velocity": 1,
          "duration": 0.125
        },
        {
          "name": "D2",
          "midi": 38,
          "time": 66.75,
          "velocity": 1,
          "duration": 0.125
        },
        {
          "name": "D2",
          "midi": 38,
          "time": 67.125,
          "velocity": 1,
          "duration": 0.125
        },
        {
          "name": "C2",
          "midi": 36,
          "time": 67.25,
          "velocity": 1,
          "duration": 0.125
        },
        {
          "name": "C2",
          "midi": 36,
          "time": 67.5,
          "velocity": 1,
          "duration": 0.125
        },
        {
          "name": "D2",
          "midi": 38,
          "time": 67.5,
          "velocity": 1,
          "duration": 0.125
        },
        {
          "name": "D#2",
          "midi": 39,
          "time": 67.875,
          "velocity": 1,
          "duration": 0.125
        },
        {
          "name": "C2",
          "midi": 36,
          "time": 68.25,
          "velocity": 1,
          "duration": 0.125
        },
        {
          "name": "C2",
          "midi": 36,
          "time": 68.5,
          "velocity": 1,
          "duration": 0.125
        },
        {
          "name": "D2",
          "midi": 38,
          "time": 68.75,
          "velocity": 1,
          "duration": 0.125
        },
        {
          "name": "C2",
          "midi": 36,
          "time": 69.25,
          "velocity": 1,
          "duration": 0.125
        },
        {
          "name": "C2",
          "midi": 36,
          "time": 69.5,
          "velocity": 1,
          "duration": 0.125
        },
        {
          "name": "C2",
          "midi": 36,
          "time": 70.25,
          "velocity": 1,
          "duration": 0.125
        },
        {
          "name": "C2",
          "midi": 36,
          "time": 70.5,
          "velocity": 1,
          "duration": 0.125
        },
        {
          "name": "D2",
          "midi": 38,
          "time": 70.75,
          "velocity": 1,
          "duration": 0.125
        },
        {
          "name": "D2",
          "midi": 38,
          "time": 71.125,
          "velocity": 1,
          "duration": 0.125
        },
        {
          "name": "C2",
          "midi": 36,
          "time": 71.25,
          "velocity": 1,
          "duration": 0.125
        },
        {
          "name": "C2",
          "midi": 36,
          "time": 71.5,
          "velocity": 1,
          "duration": 0.125
        },
        {
          "name": "D2",
          "midi": 38,
          "time": 71.5,
          "velocity": 1,
          "duration": 0.125
        },
        {
          "name": "D#2",
          "midi": 39,
          "time": 71.875,
          "velocity": 1,
          "duration": 0.125
        },
        {
          "name": "C2",
          "midi": 36,
          "time": 72.25,
          "velocity": 1,
          "duration": 0.125
        },
        {
          "name": "C2",
          "midi": 36,
          "time": 72.5,
          "velocity": 1,
          "duration": 0.125
        },
        {
          "name": "D2",
          "midi": 38,
          "time": 72.75,
          "velocity": 1,
          "duration": 0.125
        },
        {
          "name": "C2",
          "midi": 36,
          "time": 73.25,
          "velocity": 1,
          "duration": 0.125
        },
        {
          "name": "C2",
          "midi": 36,
          "time": 73.5,
          "velocity": 1,
          "duration": 0.125
        },
        {
          "name": "C2",
          "midi": 36,
          "time": 74.25,
          "velocity": 1,
          "duration": 0.125
        },
        {
          "name": "C2",
          "midi": 36,
          "time": 74.5,
          "velocity": 1,
          "duration": 0.125
        },
        {
          "name": "D2",
          "midi": 38,
          "time": 74.75,
          "velocity": 1,
          "duration": 0.125
        },
        {
          "name": "D2",
          "midi": 38,
          "time": 75.125,
          "velocity": 1,
          "duration": 0.125
        },
        {
          "name": "C2",
          "midi": 36,
          "time": 75.25,
          "velocity": 1,
          "duration": 0.125
        },
        {
          "name": "C2",
          "midi": 36,
          "time": 75.5,
          "velocity": 1,
          "duration": 0.125
        },
        {
          "name": "D2",
          "midi": 38,
          "time": 75.5,
          "velocity": 1,
          "duration": 0.125
        },
        {
          "name": "D#2",
          "midi": 39,
          "time": 75.875,
          "velocity": 1,
          "duration": 0.125
        },
        {
          "name": "C2",
          "midi": 36,
          "time": 76.25,
          "velocity": 1,
          "duration": 0.125
        },
        {
          "name": "C2",
          "midi": 36,
          "time": 76.5,
          "velocity": 1,
          "duration": 0.125
        },
        {
          "name": "D2",
          "midi": 38,
          "time": 76.75,
          "velocity": 1,
          "duration": 0.125
        },
        {
          "name": "C2",
          "midi": 36,
          "time": 77.25,
          "velocity": 1,
          "duration": 0.125
        },
        {
          "name": "C2",
          "midi": 36,
          "time": 77.5,
          "velocity": 1,
          "duration": 0.125
        },
        {
          "name": "C2",
          "midi": 36,
          "time": 78.25,
          "velocity": 1,
          "duration": 0.125
        },
        {
          "name": "C2",
          "midi": 36,
          "time": 78.5,
          "velocity": 1,
          "duration": 0.125
        },
        {
          "name": "D2",
          "midi": 38,
          "time": 78.75,
          "velocity": 1,
          "duration": 0.125
        },
        {
          "name": "D2",
          "midi": 38,
          "time": 79.125,
          "velocity": 1,
          "duration": 0.125
        },
        {
          "name": "C2",
          "midi": 36,
          "time": 79.25,
          "velocity": 1,
          "duration": 0.125
        },
        {
          "name": "C2",
          "midi": 36,
          "time": 79.5,
          "velocity": 1,
          "duration": 0.125
        },
        {
          "name": "D2",
          "midi": 38,
          "time": 79.5,
          "velocity": 1,
          "duration": 0.125
        },
        {
          "name": "D#2",
          "midi": 39,
          "time": 79.875,
          "velocity": 1,
          "duration": 0.125
        },
        {
          "name": "C2",
          "midi": 36,
          "time": 80.25,
          "velocity": 1,
          "duration": 0.125
        },
        {
          "name": "C2",
          "midi": 36,
          "time": 80.5,
          "velocity": 1,
          "duration": 0.125
        },
        {
          "name": "D2",
          "midi": 38,
          "time": 80.75,
          "velocity": 1,
          "duration": 0.125
        },
        {
          "name": "C2",
          "midi": 36,
          "time": 81.25,
          "velocity": 1,
          "duration": 0.125
        },
        {
          "name": "C2",
          "midi": 36,
          "time": 81.5,
          "velocity": 1,
          "duration": 0.125
        },
        {
          "name": "C2",
          "midi": 36,
          "time": 82.25,
          "velocity": 1,
          "duration": 0.125
        },
        {
          "name": "C2",
          "midi": 36,
          "time": 82.5,
          "velocity": 1,
          "duration": 0.125
        },
        {
          "name": "D2",
          "midi": 38,
          "time": 82.75,
          "velocity": 1,
          "duration": 0.125
        },
        {
          "name": "D2",
          "midi": 38,
          "time": 83.125,
          "velocity": 1,
          "duration": 0.125
        },
        {
          "name": "C2",
          "midi": 36,
          "time": 83.25,
          "velocity": 1,
          "duration": 0.125
        },
        {
          "name": "C2",
          "midi": 36,
          "time": 83.5,
          "velocity": 1,
          "duration": 0.125
        },
        {
          "name": "D2",
          "midi": 38,
          "time": 83.5,
          "velocity": 1,
          "duration": 0.125
        },
        {
          "name": "D#2",
          "midi": 39,
          "time": 83.875,
          "velocity": 1,
          "duration": 0.125
        },
        {
          "name": "C2",
          "midi": 36,
          "time": 84.25,
          "velocity": 1,
          "duration": 0.125
        },
        {
          "name": "C2",
          "midi": 36,
          "time": 84.5,
          "velocity": 1,
          "duration": 0.125
        },
        {
          "name": "D2",
          "midi": 38,
          "time": 84.75,
          "velocity": 1,
          "duration": 0.125
        },
        {
          "name": "C2",
          "midi": 36,
          "time": 85.25,
          "velocity": 1,
          "duration": 0.125
        },
        {
          "name": "C2",
          "midi": 36,
          "time": 85.5,
          "velocity": 1,
          "duration": 0.125
        },
        {
          "name": "C2",
          "midi": 36,
          "time": 86.25,
          "velocity": 1,
          "duration": 0.125
        },
        {
          "name": "C2",
          "midi": 36,
          "time": 86.5,
          "velocity": 1,
          "duration": 0.125
        },
        {
          "name": "D2",
          "midi": 38,
          "time": 86.75,
          "velocity": 1,
          "duration": 0.125
        },
        {
          "name": "D2",
          "midi": 38,
          "time": 87.125,
          "velocity": 1,
          "duration": 0.125
        },
        {
          "name": "C2",
          "midi": 36,
          "time": 87.25,
          "velocity": 1,
          "duration": 0.125
        },
        {
          "name": "C2",
          "midi": 36,
          "time": 87.5,
          "velocity": 1,
          "duration": 0.125
        },
        {
          "name": "D2",
          "midi": 38,
          "time": 87.5,
          "velocity": 1,
          "duration": 0.125
        },
        {
          "name": "D#2",
          "midi": 39,
          "time": 87.875,
          "velocity": 1,
          "duration": 0.125
        },
        {
          "name": "C2",
          "midi": 36,
          "time": 88.25,
          "velocity": 1,
          "duration": 0.125
        },
        {
          "name": "C2",
          "midi": 36,
          "time": 88.5,
          "velocity": 1,
          "duration": 0.125
        },
        {
          "name": "D2",
          "midi": 38,
          "time": 88.75,
          "velocity": 1,
          "duration": 0.125
        },
        {
          "name": "C2",
          "midi": 36,
          "time": 89.25,
          "velocity": 1,
          "duration": 0.125
        },
        {
          "name": "C2",
          "midi": 36,
          "time": 89.5,
          "velocity": 1,
          "duration": 0.125
        },
        {
          "name": "C2",
          "midi": 36,
          "time": 90.25,
          "velocity": 1,
          "duration": 0.125
        },
        {
          "name": "C2",
          "midi": 36,
          "time": 90.5,
          "velocity": 1,
          "duration": 0.125
        },
        {
          "name": "D2",
          "midi": 38,
          "time": 90.75,
          "velocity": 1,
          "duration": 0.125
        },
        {
          "name": "D2",
          "midi": 38,
          "time": 91.125,
          "velocity": 1,
          "duration": 0.125
        },
        {
          "name": "C2",
          "midi": 36,
          "time": 91.25,
          "velocity": 1,
          "duration": 0.125
        },
        {
          "name": "C2",
          "midi": 36,
          "time": 91.5,
          "velocity": 1,
          "duration": 0.125
        },
        {
          "name": "D2",
          "midi": 38,
          "time": 91.5,
          "velocity": 1,
          "duration": 0.125
        },
        {
          "name": "D#2",
          "midi": 39,
          "time": 91.875,
          "velocity": 1,
          "duration": 0.125
        },
        {
          "name": "C2",
          "midi": 36,
          "time": 92.25,
          "velocity": 1,
          "duration": 0.125
        },
        {
          "name": "C2",
          "midi": 36,
          "time": 92.5,
          "velocity": 1,
          "duration": 0.125
        },
        {
          "name": "D2",
          "midi": 38,
          "time": 92.75,
          "velocity": 1,
          "duration": 0.125
        },
        {
          "name": "C2",
          "midi": 36,
          "time": 93.25,
          "velocity": 1,
          "duration": 0.125
        },
        {
          "name": "C2",
          "midi": 36,
          "time": 93.5,
          "velocity": 1,
          "duration": 0.125
        },
        {
          "name": "C2",
          "midi": 36,
          "time": 94.25,
          "velocity": 1,
          "duration": 0.125
        },
        {
          "name": "C2",
          "midi": 36,
          "time": 94.5,
          "velocity": 1,
          "duration": 0.125
        },
        {
          "name": "D2",
          "midi": 38,
          "time": 94.75,
          "velocity": 1,
          "duration": 0.125
        },
        {
          "name": "D2",
          "midi": 38,
          "time": 95.125,
          "velocity": 1,
          "duration": 0.125
        },
        {
          "name": "C2",
          "midi": 36,
          "time": 95.25,
          "velocity": 1,
          "duration": 0.125
        },
        {
          "name": "C2",
          "midi": 36,
          "time": 95.5,
          "velocity": 1,
          "duration": 0.125
        },
        {
          "name": "D2",
          "midi": 38,
          "time": 95.5,
          "velocity": 1,
          "duration": 0.125
        },
        {
          "name": "D#2",
          "midi": 39,
          "time": 95.875,
          "velocity": 1,
          "duration": 0.125
        },
        {
          "name": "C2",
          "midi": 36,
          "time": 96,
          "velocity": 1,
          "duration": 0.125
        },
        {
          "name": "F#2",
          "midi": 42,
          "time": 96.25,
          "velocity": 1,
          "duration": 0.125
        },
        {
          "name": "F#2",
          "midi": 42,
          "time": 96.5,
          "velocity": 1,
          "duration": 0.125
        },
        {
          "name": "C2",
          "midi": 36,
          "time": 97,
          "velocity": 1,
          "duration": 0.125
        },
        {
          "name": "C2",
          "midi": 36,
          "time": 98,
          "velocity": 1,
          "duration": 0.125
        },
        {
          "name": "F#2",
          "midi": 42,
          "time": 98.25,
          "velocity": 1,
          "duration": 0.125
        },
        {
          "name": "F#2",
          "midi": 42,
          "time": 98.5,
          "velocity": 1,
          "duration": 0.125
        },
        {
          "name": "C2",
          "midi": 36,
          "time": 99,
          "velocity": 1,
          "duration": 0.125
        },
        {
          "name": "C2",
          "midi": 36,
          "time": 99.25,
          "velocity": 1,
          "duration": 0.125
        },
        {
          "name": "C2",
          "midi": 36,
          "time": 99.5,
          "velocity": 1,
          "duration": 0.125
        },
        {
          "name": "F#2",
          "midi": 42,
          "time": 99.625,
          "velocity": 1,
          "duration": 0.125
        },
        {
          "name": "F#2",
          "midi": 42,
          "time": 99.875,
          "velocity": 1,
          "duration": 0.125
        },
        {
          "name": "C2",
          "midi": 36,
          "time": 100,
          "velocity": 1,
          "duration": 0.125
        },
        {
          "name": "F#2",
          "midi": 42,
          "time": 100.25,
          "velocity": 1,
          "duration": 0.125
        },
        {
          "name": "F#2",
          "midi": 42,
          "time": 100.5,
          "velocity": 1,
          "duration": 0.125
        },
        {
          "name": "C2",
          "midi": 36,
          "time": 101,
          "velocity": 1,
          "duration": 0.125
        },
        {
          "name": "C2",
          "midi": 36,
          "time": 102,
          "velocity": 1,
          "duration": 0.125
        },
        {
          "name": "F#2",
          "midi": 42,
          "time": 102.25,
          "velocity": 1,
          "duration": 0.125
        },
        {
          "name": "F#2",
          "midi": 42,
          "time": 102.5,
          "velocity": 1,
          "duration": 0.125
        },
        {
          "name": "C2",
          "midi": 36,
          "time": 103,
          "velocity": 1,
          "duration": 0.125
        },
        {
          "name": "C2",
          "midi": 36,
          "time": 103.25,
          "velocity": 1,
          "duration": 0.125
        },
        {
          "name": "C2",
          "midi": 36,
          "time": 103.5,
          "velocity": 1,
          "duration": 0.125
        },
        {
          "name": "F#2",
          "midi": 42,
          "time": 103.625,
          "velocity": 1,
          "duration": 0.125
        },
        {
          "name": "F#2",
          "midi": 42,
          "time": 103.875,
          "velocity": 1,
          "duration": 0.125
        },
        {
          "name": "C2",
          "midi": 36,
          "time": 104,
          "velocity": 1,
          "duration": 0.125
        },
        {
          "name": "F#2",
          "midi": 42,
          "time": 104.25,
          "velocity": 1,
          "duration": 0.125
        },
        {
          "name": "F#2",
          "midi": 42,
          "time": 104.5,
          "velocity": 1,
          "duration": 0.125
        },
        {
          "name": "C2",
          "midi": 36,
          "time": 105,
          "velocity": 1,
          "duration": 0.125
        },
        {
          "name": "C2",
          "midi": 36,
          "time": 106,
          "velocity": 1,
          "duration": 0.125
        },
        {
          "name": "F#2",
          "midi": 42,
          "time": 106.25,
          "velocity": 1,
          "duration": 0.125
        },
        {
          "name": "F#2",
          "midi": 42,
          "time": 106.5,
          "velocity": 1,
          "duration": 0.125
        },
        {
          "name": "C2",
          "midi": 36,
          "time": 107,
          "velocity": 1,
          "duration": 0.125
        },
        {
          "name": "C2",
          "midi": 36,
          "time": 107.25,
          "velocity": 1,
          "duration": 0.125
        },
        {
          "name": "C2",
          "midi": 36,
          "time": 107.5,
          "velocity": 1,
          "duration": 0.125
        },
        {
          "name": "F#2",
          "midi": 42,
          "time": 107.625,
          "velocity": 1,
          "duration": 0.125
        },
        {
          "name": "F#2",
          "midi": 42,
          "time": 107.875,
          "velocity": 1,
          "duration": 0.125
        },
        {
          "name": "C2",
          "midi": 36,
          "time": 108,
          "velocity": 1,
          "duration": 0.125
        },
        {
          "name": "F#2",
          "midi": 42,
          "time": 108.25,
          "velocity": 1,
          "duration": 0.125
        },
        {
          "name": "F#2",
          "midi": 42,
          "time": 108.5,
          "velocity": 1,
          "duration": 0.125
        },
        {
          "name": "C2",
          "midi": 36,
          "time": 109,
          "velocity": 1,
          "duration": 0.125
        },
        {
          "name": "C2",
          "midi": 36,
          "time": 110,
          "velocity": 1,
          "duration": 0.125
        },
        {
          "name": "F#2",
          "midi": 42,
          "time": 110.25,
          "velocity": 1,
          "duration": 0.125
        },
        {
          "name": "F#2",
          "midi": 42,
          "time": 110.5,
          "velocity": 1,
          "duration": 0.125
        },
        {
          "name": "C2",
          "midi": 36,
          "time": 111,
          "velocity": 1,
          "duration": 0.125
        },
        {
          "name": "C2",
          "midi": 36,
          "time": 111.25,
          "velocity": 1,
          "duration": 0.125
        },
        {
          "name": "C2",
          "midi": 36,
          "time": 111.5,
          "velocity": 1,
          "duration": 0.125
        },
        {
          "name": "F#2",
          "midi": 42,
          "time": 111.625,
          "velocity": 1,
          "duration": 0.125
        },
        {
          "name": "F#2",
          "midi": 42,
          "time": 111.875,
          "velocity": 1,
          "duration": 0.125
        },
        {
          "name": "C2",
          "midi": 36,
          "time": 112,
          "velocity": 1,
          "duration": 0.125
        },
        {
          "name": "F#2",
          "midi": 42,
          "time": 112.25,
          "velocity": 1,
          "duration": 0.125
        },
        {
          "name": "F#2",
          "midi": 42,
          "time": 112.5,
          "velocity": 1,
          "duration": 0.125
        },
        {
          "name": "C2",
          "midi": 36,
          "time": 113,
          "velocity": 1,
          "duration": 0.125
        },
        {
          "name": "C2",
          "midi": 36,
          "time": 114,
          "velocity": 1,
          "duration": 0.125
        },
        {
          "name": "F#2",
          "midi": 42,
          "time": 114.25,
          "velocity": 1,
          "duration": 0.125
        },
        {
          "name": "F#2",
          "midi": 42,
          "time": 114.5,
          "velocity": 1,
          "duration": 0.125
        },
        {
          "name": "C2",
          "midi": 36,
          "time": 115,
          "velocity": 1,
          "duration": 0.125
        },
        {
          "name": "C2",
          "midi": 36,
          "time": 115.25,
          "velocity": 1,
          "duration": 0.125
        },
        {
          "name": "C2",
          "midi": 36,
          "time": 115.5,
          "velocity": 1,
          "duration": 0.125
        },
        {
          "name": "F#2",
          "midi": 42,
          "time": 115.625,
          "velocity": 1,
          "duration": 0.125
        },
        {
          "name": "F#2",
          "midi": 42,
          "time": 115.875,
          "velocity": 1,
          "duration": 0.125
        },
        {
          "name": "C2",
          "midi": 36,
          "time": 116,
          "velocity": 1,
          "duration": 0.125
        },
        {
          "name": "F#2",
          "midi": 42,
          "time": 116.25,
          "velocity": 1,
          "duration": 0.125
        },
        {
          "name": "F#2",
          "midi": 42,
          "time": 116.5,
          "velocity": 1,
          "duration": 0.125
        },
        {
          "name": "C2",
          "midi": 36,
          "time": 117,
          "velocity": 1,
          "duration": 0.125
        },
        {
          "name": "C2",
          "midi": 36,
          "time": 118,
          "velocity": 1,
          "duration": 0.125
        },
        {
          "name": "F#2",
          "midi": 42,
          "time": 118.25,
          "velocity": 1,
          "duration": 0.125
        },
        {
          "name": "F#2",
          "midi": 42,
          "time": 118.5,
          "velocity": 1,
          "duration": 0.125
        },
        {
          "name": "C2",
          "midi": 36,
          "time": 119,
          "velocity": 1,
          "duration": 0.125
        },
        {
          "name": "C2",
          "midi": 36,
          "time": 119.25,
          "velocity": 1,
          "duration": 0.125
        },
        {
          "name": "C2",
          "midi": 36,
          "time": 119.5,
          "velocity": 1,
          "duration": 0.125
        },
        {
          "name": "F#2",
          "midi": 42,
          "time": 119.625,
          "velocity": 1,
          "duration": 0.125
        },
        {
          "name": "F#2",
          "midi": 42,
          "time": 119.875,
          "velocity": 1,
          "duration": 0.125
        },
        {
          "name": "C2",
          "midi": 36,
          "time": 120,
          "velocity": 1,
          "duration": 0.125
        },
        {
          "name": "F#2",
          "midi": 42,
          "time": 120.25,
          "velocity": 1,
          "duration": 0.125
        },
        {
          "name": "F#2",
          "midi": 42,
          "time": 120.5,
          "velocity": 1,
          "duration": 0.125
        },
        {
          "name": "C2",
          "midi": 36,
          "time": 121,
          "velocity": 1,
          "duration": 0.125
        },
        {
          "name": "C2",
          "midi": 36,
          "time": 122,
          "velocity": 1,
          "duration": 0.125
        },
        {
          "name": "F#2",
          "midi": 42,
          "time": 122.25,
          "velocity": 1,
          "duration": 0.125
        },
        {
          "name": "F#2",
          "midi": 42,
          "time": 122.5,
          "velocity": 1,
          "duration": 0.125
        },
        {
          "name": "C2",
          "midi": 36,
          "time": 123,
          "velocity": 1,
          "duration": 0.125
        },
        {
          "name": "C2",
          "midi": 36,
          "time": 123.25,
          "velocity": 1,
          "duration": 0.125
        },
        {
          "name": "C2",
          "midi": 36,
          "time": 123.5,
          "velocity": 1,
          "duration": 0.125
        },
        {
          "name": "F#2",
          "midi": 42,
          "time": 123.625,
          "velocity": 1,
          "duration": 0.125
        },
        {
          "name": "F#2",
          "midi": 42,
          "time": 123.875,
          "velocity": 1,
          "duration": 0.125
        },
        {
          "name": "C2",
          "midi": 36,
          "time": 124,
          "velocity": 1,
          "duration": 0.125
        },
        {
          "name": "F#2",
          "midi": 42,
          "time": 124.25,
          "velocity": 1,
          "duration": 0.125
        },
        {
          "name": "F#2",
          "midi": 42,
          "time": 124.5,
          "velocity": 1,
          "duration": 0.125
        },
        {
          "name": "C2",
          "midi": 36,
          "time": 125,
          "velocity": 1,
          "duration": 0.125
        },
        {
          "name": "C2",
          "midi": 36,
          "time": 126,
          "velocity": 1,
          "duration": 0.125
        },
        {
          "name": "F#2",
          "midi": 42,
          "time": 126.25,
          "velocity": 1,
          "duration": 0.125
        },
        {
          "name": "F#2",
          "midi": 42,
          "time": 126.5,
          "velocity": 1,
          "duration": 0.125
        },
        {
          "name": "C2",
          "midi": 36,
          "time": 127,
          "velocity": 1,
          "duration": 0.125
        },
        {
          "name": "C2",
          "midi": 36,
          "time": 127.25,
          "velocity": 1,
          "duration": 0.125
        },
        {
          "name": "C2",
          "midi": 36,
          "time": 127.5,
          "velocity": 1,
          "duration": 0.125
        },
        {
          "name": "F#2",
          "midi": 42,
          "time": 127.625,
          "velocity": 1,
          "duration": 0.125
        },
        {
          "name": "F#2",
          "midi": 42,
          "time": 127.875,
          "velocity": 1,
          "duration": 0.125
        },
        {
          "name": "C2",
          "midi": 36,
          "time": 128,
          "velocity": 1,
          "duration": 0.125
        },
        {
          "name": "F#2",
          "midi": 42,
          "time": 128.5,
          "velocity": 1,
          "duration": 0.125
        },
        {
          "name": "F#2",
          "midi": 42,
          "time": 128.75,
          "velocity": 1,
          "duration": 0.125
        },
        {
          "name": "C2",
          "midi": 36,
          "time": 129.5,
          "velocity": 1,
          "duration": 0.125
        },
        {
          "name": "F#2",
          "midi": 42,
          "time": 129.875,
          "velocity": 1,
          "duration": 0.125
        },
        {
          "name": "C2",
          "midi": 36,
          "time": 130,
          "velocity": 1,
          "duration": 0.125
        },
        {
          "name": "F#2",
          "midi": 42,
          "time": 130.5,
          "velocity": 1,
          "duration": 0.125
        },
        {
          "name": "F#2",
          "midi": 42,
          "time": 130.75,
          "velocity": 1,
          "duration": 0.125
        },
        {
          "name": "C2",
          "midi": 36,
          "time": 131.5,
          "velocity": 1,
          "duration": 0.125
        },
        {
          "name": "D#2",
          "midi": 39,
          "time": 131.5,
          "velocity": 1,
          "duration": 0.125
        },
        {
          "name": "D#2",
          "midi": 39,
          "time": 131.625,
          "velocity": 1,
          "duration": 0.125
        },
        {
          "name": "F#2",
          "midi": 42,
          "time": 131.875,
          "velocity": 1,
          "duration": 0.125
        },
        {
          "name": "C2",
          "midi": 36,
          "time": 132,
          "velocity": 1,
          "duration": 0.125
        },
        {
          "name": "F#2",
          "midi": 42,
          "time": 132.5,
          "velocity": 1,
          "duration": 0.125
        },
        {
          "name": "F#2",
          "midi": 42,
          "time": 132.75,
          "velocity": 1,
          "duration": 0.125
        },
        {
          "name": "C2",
          "midi": 36,
          "time": 133.5,
          "velocity": 1,
          "duration": 0.125
        },
        {
          "name": "F#2",
          "midi": 42,
          "time": 133.875,
          "velocity": 1,
          "duration": 0.125
        },
        {
          "name": "C2",
          "midi": 36,
          "time": 134,
          "velocity": 1,
          "duration": 0.125
        },
        {
          "name": "F#2",
          "midi": 42,
          "time": 134.5,
          "velocity": 1,
          "duration": 0.125
        },
        {
          "name": "F#2",
          "midi": 42,
          "time": 134.75,
          "velocity": 1,
          "duration": 0.125
        },
        {
          "name": "C2",
          "midi": 36,
          "time": 135.5,
          "velocity": 1,
          "duration": 0.125
        },
        {
          "name": "D#2",
          "midi": 39,
          "time": 135.5,
          "velocity": 1,
          "duration": 0.125
        },
        {
          "name": "D#2",
          "midi": 39,
          "time": 135.625,
          "velocity": 1,
          "duration": 0.125
        },
        {
          "name": "F#2",
          "midi": 42,
          "time": 135.875,
          "velocity": 1,
          "duration": 0.125
        },
        {
          "name": "C2",
          "midi": 36,
          "time": 136,
          "velocity": 1,
          "duration": 0.125
        },
        {
          "name": "F#2",
          "midi": 42,
          "time": 136.5,
          "velocity": 1,
          "duration": 0.125
        },
        {
          "name": "F#2",
          "midi": 42,
          "time": 136.75,
          "velocity": 1,
          "duration": 0.125
        },
        {
          "name": "C2",
          "midi": 36,
          "time": 137.5,
          "velocity": 1,
          "duration": 0.125
        },
        {
          "name": "F#2",
          "midi": 42,
          "time": 137.875,
          "velocity": 1,
          "duration": 0.125
        },
        {
          "name": "C2",
          "midi": 36,
          "time": 138,
          "velocity": 1,
          "duration": 0.125
        },
        {
          "name": "F#2",
          "midi": 42,
          "time": 138.5,
          "velocity": 1,
          "duration": 0.125
        },
        {
          "name": "F#2",
          "midi": 42,
          "time": 138.75,
          "velocity": 1,
          "duration": 0.125
        },
        {
          "name": "C2",
          "midi": 36,
          "time": 139.5,
          "velocity": 1,
          "duration": 0.125
        },
        {
          "name": "D#2",
          "midi": 39,
          "time": 139.5,
          "velocity": 1,
          "duration": 0.125
        },
        {
          "name": "D#2",
          "midi": 39,
          "time": 139.625,
          "velocity": 1,
          "duration": 0.125
        },
        {
          "name": "F#2",
          "midi": 42,
          "time": 139.875,
          "velocity": 1,
          "duration": 0.125
        },
        {
          "name": "C2",
          "midi": 36,
          "time": 140,
          "velocity": 1,
          "duration": 0.125
        },
        {
          "name": "F#2",
          "midi": 42,
          "time": 140.5,
          "velocity": 1,
          "duration": 0.125
        },
        {
          "name": "F#2",
          "midi": 42,
          "time": 140.75,
          "velocity": 1,
          "duration": 0.125
        },
        {
          "name": "C2",
          "midi": 36,
          "time": 141.5,
          "velocity": 1,
          "duration": 0.125
        },
        {
          "name": "F#2",
          "midi": 42,
          "time": 141.875,
          "velocity": 1,
          "duration": 0.125
        },
        {
          "name": "C2",
          "midi": 36,
          "time": 142,
          "velocity": 1,
          "duration": 0.125
        },
        {
          "name": "F#2",
          "midi": 42,
          "time": 142.5,
          "velocity": 1,
          "duration": 0.125
        },
        {
          "name": "F#2",
          "midi": 42,
          "time": 142.75,
          "velocity": 1,
          "duration": 0.125
        },
        {
          "name": "C2",
          "midi": 36,
          "time": 143.5,
          "velocity": 1,
          "duration": 0.125
        },
        {
          "name": "D#2",
          "midi": 39,
          "time": 143.5,
          "velocity": 1,
          "duration": 0.125
        },
        {
          "name": "D#2",
          "midi": 39,
          "time": 143.625,
          "velocity": 1,
          "duration": 0.125
        },
        {
          "name": "F#2",
          "midi": 42,
          "time": 143.875,
          "velocity": 1,
          "duration": 0.125
        },
        {
          "name": "C2",
          "midi": 36,
          "time": 144,
          "velocity": 1,
          "duration": 0.125
        },
        {
          "name": "F#2",
          "midi": 42,
          "time": 144.5,
          "velocity": 1,
          "duration": 0.125
        },
        {
          "name": "F#2",
          "midi": 42,
          "time": 144.75,
          "velocity": 1,
          "duration": 0.125
        },
        {
          "name": "C2",
          "midi": 36,
          "time": 145.5,
          "velocity": 1,
          "duration": 0.125
        },
        {
          "name": "F#2",
          "midi": 42,
          "time": 145.875,
          "velocity": 1,
          "duration": 0.125
        },
        {
          "name": "C2",
          "midi": 36,
          "time": 146,
          "velocity": 1,
          "duration": 0.125
        },
        {
          "name": "F#2",
          "midi": 42,
          "time": 146.5,
          "velocity": 1,
          "duration": 0.125
        },
        {
          "name": "F#2",
          "midi": 42,
          "time": 146.75,
          "velocity": 1,
          "duration": 0.125
        },
        {
          "name": "C2",
          "midi": 36,
          "time": 147.5,
          "velocity": 1,
          "duration": 0.125
        },
        {
          "name": "D#2",
          "midi": 39,
          "time": 147.5,
          "velocity": 1,
          "duration": 0.125
        },
        {
          "name": "D#2",
          "midi": 39,
          "time": 147.625,
          "velocity": 1,
          "duration": 0.125
        },
        {
          "name": "F#2",
          "midi": 42,
          "time": 147.875,
          "velocity": 1,
          "duration": 0.125
        },
        {
          "name": "C2",
          "midi": 36,
          "time": 148,
          "velocity": 1,
          "duration": 0.125
        },
        {
          "name": "F#2",
          "midi": 42,
          "time": 148.5,
          "velocity": 1,
          "duration": 0.125
        },
        {
          "name": "F#2",
          "midi": 42,
          "time": 148.75,
          "velocity": 1,
          "duration": 0.125
        },
        {
          "name": "C2",
          "midi": 36,
          "time": 149.5,
          "velocity": 1,
          "duration": 0.125
        },
        {
          "name": "F#2",
          "midi": 42,
          "time": 149.875,
          "velocity": 1,
          "duration": 0.125
        },
        {
          "name": "C2",
          "midi": 36,
          "time": 150,
          "velocity": 1,
          "duration": 0.125
        },
        {
          "name": "F#2",
          "midi": 42,
          "time": 150.5,
          "velocity": 1,
          "duration": 0.125
        },
        {
          "name": "F#2",
          "midi": 42,
          "time": 150.75,
          "velocity": 1,
          "duration": 0.125
        },
        {
          "name": "C2",
          "midi": 36,
          "time": 151.5,
          "velocity": 1,
          "duration": 0.125
        },
        {
          "name": "D#2",
          "midi": 39,
          "time": 151.5,
          "velocity": 1,
          "duration": 0.125
        },
        {
          "name": "D#2",
          "midi": 39,
          "time": 151.625,
          "velocity": 1,
          "duration": 0.125
        },
        {
          "name": "F#2",
          "midi": 42,
          "time": 151.875,
          "velocity": 1,
          "duration": 0.125
        },
        {
          "name": "C2",
          "midi": 36,
          "time": 152,
          "velocity": 1,
          "duration": 0.125
        },
        {
          "name": "F#2",
          "midi": 42,
          "time": 152.5,
          "velocity": 1,
          "duration": 0.125
        },
        {
          "name": "F#2",
          "midi": 42,
          "time": 152.75,
          "velocity": 1,
          "duration": 0.125
        },
        {
          "name": "C2",
          "midi": 36,
          "time": 153.5,
          "velocity": 1,
          "duration": 0.125
        },
        {
          "name": "F#2",
          "midi": 42,
          "time": 153.875,
          "velocity": 1,
          "duration": 0.125
        },
        {
          "name": "C2",
          "midi": 36,
          "time": 154,
          "velocity": 1,
          "duration": 0.125
        },
        {
          "name": "F#2",
          "midi": 42,
          "time": 154.5,
          "velocity": 1,
          "duration": 0.125
        },
        {
          "name": "F#2",
          "midi": 42,
          "time": 154.75,
          "velocity": 1,
          "duration": 0.125
        },
        {
          "name": "C2",
          "midi": 36,
          "time": 155.5,
          "velocity": 1,
          "duration": 0.125
        },
        {
          "name": "D#2",
          "midi": 39,
          "time": 155.5,
          "velocity": 1,
          "duration": 0.125
        },
        {
          "name": "D#2",
          "midi": 39,
          "time": 155.625,
          "velocity": 1,
          "duration": 0.125
        },
        {
          "name": "F#2",
          "midi": 42,
          "time": 155.875,
          "velocity": 1,
          "duration": 0.125
        },
        {
          "name": "C2",
          "midi": 36,
          "time": 156,
          "velocity": 1,
          "duration": 0.125
        },
        {
          "name": "F#2",
          "midi": 42,
          "time": 156.5,
          "velocity": 1,
          "duration": 0.125
        },
        {
          "name": "F#2",
          "midi": 42,
          "time": 156.75,
          "velocity": 1,
          "duration": 0.125
        },
        {
          "name": "C2",
          "midi": 36,
          "time": 157.5,
          "velocity": 1,
          "duration": 0.125
        },
        {
          "name": "F#2",
          "midi": 42,
          "time": 157.875,
          "velocity": 1,
          "duration": 0.125
        },
        {
          "name": "C2",
          "midi": 36,
          "time": 158,
          "velocity": 1,
          "duration": 0.125
        },
        {
          "name": "F#2",
          "midi": 42,
          "time": 158.5,
          "velocity": 1,
          "duration": 0.125
        },
        {
          "name": "F#2",
          "midi": 42,
          "time": 158.75,
          "velocity": 1,
          "duration": 0.125
        },
        {
          "name": "C2",
          "midi": 36,
          "time": 159.5,
          "velocity": 1,
          "duration": 0.125
        },
        {
          "name": "D#2",
          "midi": 39,
          "time": 159.5,
          "velocity": 1,
          "duration": 0.125
        },
        {
          "name": "D#2",
          "midi": 39,
          "time": 159.625,
          "velocity": 1,
          "duration": 0.125
        },
        {
          "name": "F#2",
          "midi": 42,
          "time": 159.875,
          "velocity": 1,
          "duration": 0.125
        },
        {
          "name": "C2",
          "midi": 36,
          "time": 160,
          "velocity": 1,
          "duration": 0.125
        },
        {
          "name": "C2",
          "midi": 36,
          "time": 160.5,
          "velocity": 1,
          "duration": 0.125
        },
        {
          "name": "D2",
          "midi": 38,
          "time": 160.75,
          "velocity": 1,
          "duration": 0.125
        },
        {
          "name": "C2",
          "midi": 36,
          "time": 161,
          "velocity": 1,
          "duration": 0.125
        },
        {
          "name": "C2",
          "midi": 36,
          "time": 161.25,
          "velocity": 1,
          "duration": 0.125
        },
        {
          "name": "C2",
          "midi": 36,
          "time": 161.5,
          "velocity": 1,
          "duration": 0.125
        },
        {
          "name": "C2",
          "midi": 36,
          "time": 162,
          "velocity": 1,
          "duration": 0.125
        },
        {
          "name": "C2",
          "midi": 36,
          "time": 162.5,
          "velocity": 1,
          "duration": 0.125
        },
        {
          "name": "D2",
          "midi": 38,
          "time": 162.75,
          "velocity": 1,
          "duration": 0.125
        },
        {
          "name": "C2",
          "midi": 36,
          "time": 163,
          "velocity": 1,
          "duration": 0.125
        },
        {
          "name": "C2",
          "midi": 36,
          "time": 163.25,
          "velocity": 1,
          "duration": 0.125
        },
        {
          "name": "F#2",
          "midi": 42,
          "time": 163.375,
          "velocity": 1,
          "duration": 0.125
        },
        {
          "name": "C2",
          "midi": 36,
          "time": 163.5,
          "velocity": 1,
          "duration": 0.125
        },
        {
          "name": "F#2",
          "midi": 42,
          "time": 163.75,
          "velocity": 1,
          "duration": 0.125
        },
        {
          "name": "D#2",
          "midi": 39,
          "time": 163.875,
          "velocity": 1,
          "duration": 0.125
        },
        {
          "name": "F#2",
          "midi": 42,
          "time": 163.875,
          "velocity": 1,
          "duration": 0.125
        },
        {
          "name": "C2",
          "midi": 36,
          "time": 164,
          "velocity": 1,
          "duration": 0.125
        },
        {
          "name": "C2",
          "midi": 36,
          "time": 164.5,
          "velocity": 1,
          "duration": 0.125
        },
        {
          "name": "D2",
          "midi": 38,
          "time": 164.75,
          "velocity": 1,
          "duration": 0.125
        },
        {
          "name": "C2",
          "midi": 36,
          "time": 165,
          "velocity": 1,
          "duration": 0.125
        },
        {
          "name": "C2",
          "midi": 36,
          "time": 165.25,
          "velocity": 1,
          "duration": 0.125
        },
        {
          "name": "C2",
          "midi": 36,
          "time": 165.5,
          "velocity": 1,
          "duration": 0.125
        },
        {
          "name": "C2",
          "midi": 36,
          "time": 166,
          "velocity": 1,
          "duration": 0.125
        },
        {
          "name": "C2",
          "midi": 36,
          "time": 166.5,
          "velocity": 1,
          "duration": 0.125
        },
        {
          "name": "D2",
          "midi": 38,
          "time": 166.75,
          "velocity": 1,
          "duration": 0.125
        },
        {
          "name": "C2",
          "midi": 36,
          "time": 167,
          "velocity": 1,
          "duration": 0.125
        },
        {
          "name": "C2",
          "midi": 36,
          "time": 167.25,
          "velocity": 1,
          "duration": 0.125
        },
        {
          "name": "F#2",
          "midi": 42,
          "time": 167.375,
          "velocity": 1,
          "duration": 0.125
        },
        {
          "name": "C2",
          "midi": 36,
          "time": 167.5,
          "velocity": 1,
          "duration": 0.125
        },
        {
          "name": "F#2",
          "midi": 42,
          "time": 167.75,
          "velocity": 1,
          "duration": 0.125
        },
        {
          "name": "D#2",
          "midi": 39,
          "time": 167.875,
          "velocity": 1,
          "duration": 0.125
        },
        {
          "name": "F#2",
          "midi": 42,
          "time": 167.875,
          "velocity": 1,
          "duration": 0.125
        },
        {
          "name": "C2",
          "midi": 36,
          "time": 168,
          "velocity": 1,
          "duration": 0.125
        },
        {
          "name": "C2",
          "midi": 36,
          "time": 168.5,
          "velocity": 1,
          "duration": 0.125
        },
        {
          "name": "D2",
          "midi": 38,
          "time": 168.75,
          "velocity": 1,
          "duration": 0.125
        },
        {
          "name": "C2",
          "midi": 36,
          "time": 169,
          "velocity": 1,
          "duration": 0.125
        },
        {
          "name": "C2",
          "midi": 36,
          "time": 169.25,
          "velocity": 1,
          "duration": 0.125
        },
        {
          "name": "C2",
          "midi": 36,
          "time": 169.5,
          "velocity": 1,
          "duration": 0.125
        },
        {
          "name": "C2",
          "midi": 36,
          "time": 170,
          "velocity": 1,
          "duration": 0.125
        },
        {
          "name": "C2",
          "midi": 36,
          "time": 170.5,
          "velocity": 1,
          "duration": 0.125
        },
        {
          "name": "D2",
          "midi": 38,
          "time": 170.75,
          "velocity": 1,
          "duration": 0.125
        },
        {
          "name": "C2",
          "midi": 36,
          "time": 171,
          "velocity": 1,
          "duration": 0.125
        },
        {
          "name": "C2",
          "midi": 36,
          "time": 171.25,
          "velocity": 1,
          "duration": 0.125
        },
        {
          "name": "F#2",
          "midi": 42,
          "time": 171.375,
          "velocity": 1,
          "duration": 0.125
        },
        {
          "name": "C2",
          "midi": 36,
          "time": 171.5,
          "velocity": 1,
          "duration": 0.125
        },
        {
          "name": "F#2",
          "midi": 42,
          "time": 171.75,
          "velocity": 1,
          "duration": 0.125
        },
        {
          "name": "D#2",
          "midi": 39,
          "time": 171.875,
          "velocity": 1,
          "duration": 0.125
        },
        {
          "name": "F#2",
          "midi": 42,
          "time": 171.875,
          "velocity": 1,
          "duration": 0.125
        },
        {
          "name": "C2",
          "midi": 36,
          "time": 172,
          "velocity": 1,
          "duration": 0.125
        },
        {
          "name": "C2",
          "midi": 36,
          "time": 172.5,
          "velocity": 1,
          "duration": 0.125
        },
        {
          "name": "D2",
          "midi": 38,
          "time": 172.75,
          "velocity": 1,
          "duration": 0.125
        },
        {
          "name": "C2",
          "midi": 36,
          "time": 173,
          "velocity": 1,
          "duration": 0.125
        },
        {
          "name": "C2",
          "midi": 36,
          "time": 173.25,
          "velocity": 1,
          "duration": 0.125
        },
        {
          "name": "C2",
          "midi": 36,
          "time": 173.5,
          "velocity": 1,
          "duration": 0.125
        },
        {
          "name": "C2",
          "midi": 36,
          "time": 174,
          "velocity": 1,
          "duration": 0.125
        },
        {
          "name": "C2",
          "midi": 36,
          "time": 174.5,
          "velocity": 1,
          "duration": 0.125
        },
        {
          "name": "D2",
          "midi": 38,
          "time": 174.75,
          "velocity": 1,
          "duration": 0.125
        },
        {
          "name": "C2",
          "midi": 36,
          "time": 175,
          "velocity": 1,
          "duration": 0.125
        },
        {
          "name": "C2",
          "midi": 36,
          "time": 175.25,
          "velocity": 1,
          "duration": 0.125
        },
        {
          "name": "F#2",
          "midi": 42,
          "time": 175.375,
          "velocity": 1,
          "duration": 0.125
        },
        {
          "name": "C2",
          "midi": 36,
          "time": 175.5,
          "velocity": 1,
          "duration": 0.125
        },
        {
          "name": "F#2",
          "midi": 42,
          "time": 175.75,
          "velocity": 1,
          "duration": 0.125
        },
        {
          "name": "D#2",
          "midi": 39,
          "time": 175.875,
          "velocity": 1,
          "duration": 0.125
        },
        {
          "name": "F#2",
          "midi": 42,
          "time": 175.875,
          "velocity": 1,
          "duration": 0.125
        },
        {
          "name": "C2",
          "midi": 36,
          "time": 176,
          "velocity": 1,
          "duration": 0.125
        },
        {
          "name": "C2",
          "midi": 36,
          "time": 176.5,
          "velocity": 1,
          "duration": 0.125
        },
        {
          "name": "D2",
          "midi": 38,
          "time": 176.75,
          "velocity": 1,
          "duration": 0.125
        },
        {
          "name": "C2",
          "midi": 36,
          "time": 177,
          "velocity": 1,
          "duration": 0.125
        },
        {
          "name": "C2",
          "midi": 36,
          "time": 177.25,
          "velocity": 1,
          "duration": 0.125
        },
        {
          "name": "C2",
          "midi": 36,
          "time": 177.5,
          "velocity": 1,
          "duration": 0.125
        },
        {
          "name": "C2",
          "midi": 36,
          "time": 178,
          "velocity": 1,
          "duration": 0.125
        },
        {
          "name": "C2",
          "midi": 36,
          "time": 178.5,
          "velocity": 1,
          "duration": 0.125
        },
        {
          "name": "D2",
          "midi": 38,
          "time": 178.75,
          "velocity": 1,
          "duration": 0.125
        },
        {
          "name": "C2",
          "midi": 36,
          "time": 179,
          "velocity": 1,
          "duration": 0.125
        },
        {
          "name": "C2",
          "midi": 36,
          "time": 179.25,
          "velocity": 1,
          "duration": 0.125
        },
        {
          "name": "F#2",
          "midi": 42,
          "time": 179.375,
          "velocity": 1,
          "duration": 0.125
        },
        {
          "name": "C2",
          "midi": 36,
          "time": 179.5,
          "velocity": 1,
          "duration": 0.125
        },
        {
          "name": "F#2",
          "midi": 42,
          "time": 179.75,
          "velocity": 1,
          "duration": 0.125
        },
        {
          "name": "D#2",
          "midi": 39,
          "time": 179.875,
          "velocity": 1,
          "duration": 0.125
        },
        {
          "name": "F#2",
          "midi": 42,
          "time": 179.875,
          "velocity": 1,
          "duration": 0.125
        },
        {
          "name": "C2",
          "midi": 36,
          "time": 180,
          "velocity": 1,
          "duration": 0.125
        },
        {
          "name": "C2",
          "midi": 36,
          "time": 180.5,
          "velocity": 1,
          "duration": 0.125
        },
        {
          "name": "D2",
          "midi": 38,
          "time": 180.75,
          "velocity": 1,
          "duration": 0.125
        },
        {
          "name": "C2",
          "midi": 36,
          "time": 181,
          "velocity": 1,
          "duration": 0.125
        },
        {
          "name": "C2",
          "midi": 36,
          "time": 181.25,
          "velocity": 1,
          "duration": 0.125
        },
        {
          "name": "C2",
          "midi": 36,
          "time": 181.5,
          "velocity": 1,
          "duration": 0.125
        },
        {
          "name": "C2",
          "midi": 36,
          "time": 182,
          "velocity": 1,
          "duration": 0.125
        },
        {
          "name": "C2",
          "midi": 36,
          "time": 182.5,
          "velocity": 1,
          "duration": 0.125
        },
        {
          "name": "D2",
          "midi": 38,
          "time": 182.75,
          "velocity": 1,
          "duration": 0.125
        },
        {
          "name": "C2",
          "midi": 36,
          "time": 183,
          "velocity": 1,
          "duration": 0.125
        },
        {
          "name": "C2",
          "midi": 36,
          "time": 183.25,
          "velocity": 1,
          "duration": 0.125
        },
        {
          "name": "F#2",
          "midi": 42,
          "time": 183.375,
          "velocity": 1,
          "duration": 0.125
        },
        {
          "name": "C2",
          "midi": 36,
          "time": 183.5,
          "velocity": 1,
          "duration": 0.125
        },
        {
          "name": "F#2",
          "midi": 42,
          "time": 183.75,
          "velocity": 1,
          "duration": 0.125
        },
        {
          "name": "D#2",
          "midi": 39,
          "time": 183.875,
          "velocity": 1,
          "duration": 0.125
        },
        {
          "name": "F#2",
          "midi": 42,
          "time": 183.875,
          "velocity": 1,
          "duration": 0.125
        },
        {
          "name": "C2",
          "midi": 36,
          "time": 184,
          "velocity": 1,
          "duration": 0.125
        },
        {
          "name": "C2",
          "midi": 36,
          "time": 184.5,
          "velocity": 1,
          "duration": 0.125
        },
        {
          "name": "D2",
          "midi": 38,
          "time": 184.75,
          "velocity": 1,
          "duration": 0.125
        },
        {
          "name": "C2",
          "midi": 36,
          "time": 185,
          "velocity": 1,
          "duration": 0.125
        },
        {
          "name": "C2",
          "midi": 36,
          "time": 185.25,
          "velocity": 1,
          "duration": 0.125
        },
        {
          "name": "C2",
          "midi": 36,
          "time": 185.5,
          "velocity": 1,
          "duration": 0.125
        },
        {
          "name": "C2",
          "midi": 36,
          "time": 186,
          "velocity": 1,
          "duration": 0.125
        },
        {
          "name": "C2",
          "midi": 36,
          "time": 186.5,
          "velocity": 1,
          "duration": 0.125
        },
        {
          "name": "D2",
          "midi": 38,
          "time": 186.75,
          "velocity": 1,
          "duration": 0.125
        },
        {
          "name": "C2",
          "midi": 36,
          "time": 187,
          "velocity": 1,
          "duration": 0.125
        },
        {
          "name": "C2",
          "midi": 36,
          "time": 187.25,
          "velocity": 1,
          "duration": 0.125
        },
        {
          "name": "F#2",
          "midi": 42,
          "time": 187.375,
          "velocity": 1,
          "duration": 0.125
        },
        {
          "name": "C2",
          "midi": 36,
          "time": 187.5,
          "velocity": 1,
          "duration": 0.125
        },
        {
          "name": "F#2",
          "midi": 42,
          "time": 187.75,
          "velocity": 1,
          "duration": 0.125
        },
        {
          "name": "D#2",
          "midi": 39,
          "time": 187.875,
          "velocity": 1,
          "duration": 0.125
        },
        {
          "name": "F#2",
          "midi": 42,
          "time": 187.875,
          "velocity": 1,
          "duration": 0.125
        },
        {
          "name": "C2",
          "midi": 36,
          "time": 188,
          "velocity": 1,
          "duration": 0.125
        },
        {
          "name": "C2",
          "midi": 36,
          "time": 188.5,
          "velocity": 1,
          "duration": 0.125
        },
        {
          "name": "D2",
          "midi": 38,
          "time": 188.75,
          "velocity": 1,
          "duration": 0.125
        },
        {
          "name": "C2",
          "midi": 36,
          "time": 189,
          "velocity": 1,
          "duration": 0.125
        },
        {
          "name": "C2",
          "midi": 36,
          "time": 189.25,
          "velocity": 1,
          "duration": 0.125
        },
        {
          "name": "C2",
          "midi": 36,
          "time": 189.5,
          "velocity": 1,
          "duration": 0.125
        },
        {
          "name": "C2",
          "midi": 36,
          "time": 190,
          "velocity": 1,
          "duration": 0.125
        },
        {
          "name": "C2",
          "midi": 36,
          "time": 190.5,
          "velocity": 1,
          "duration": 0.125
        },
        {
          "name": "D2",
          "midi": 38,
          "time": 190.75,
          "velocity": 1,
          "duration": 0.125
        },
        {
          "name": "C2",
          "midi": 36,
          "time": 191,
          "velocity": 1,
          "duration": 0.125
        },
        {
          "name": "C2",
          "midi": 36,
          "time": 191.25,
          "velocity": 1,
          "duration": 0.125
        },
        {
          "name": "F#2",
          "midi": 42,
          "time": 191.375,
          "velocity": 1,
          "duration": 0.125
        },
        {
          "name": "C2",
          "midi": 36,
          "time": 191.5,
          "velocity": 1,
          "duration": 0.125
        },
        {
          "name": "F#2",
          "midi": 42,
          "time": 191.75,
          "velocity": 1,
          "duration": 0.125
        },
        {
          "name": "D#2",
          "midi": 39,
          "time": 191.875,
          "velocity": 1,
          "duration": 0.125
        },
        {
          "name": "F#2",
          "midi": 42,
          "time": 191.875,
          "velocity": 1,
          "duration": 0.125
        }
      ],
      "controlChanges": {},
      "id": 0,
      "name": "",
      "channelNumber": 0,
      "isPercussion": false
    }
  ]
}
