{
  "header": {
    "PPQ": 96,
    "timeSignature": [
      4,
      4
    ],
    "bpm": 120,
    "name": ""
  },
  "startTime": 8,
  "duration": 107.75,
  "tracks": [
    {
      "startTime": 8,
      "duration": 107.75,
      "length": 415,
      "notes": [
        {
          "name": "C2",
          "midi": 36,
          "time": 8,
          "velocity": 0.7874015748031497,
          "duration": 0.125
        },
        {
          "name": "G#2",
          "midi": 44,
          "time": 8,
          "velocity": 0.4881889763779528,
          "duration": 0.09895833333333393
        },
        {
          "name": "G#2",
          "midi": 44,
          "time": 8.5,
          "velocity": 0.7874015748031497,
          "duration": 0.125
        },
        {
          "name": "G#2",
          "midi": 44,
          "time": 9.25,
          "velocity": 0.7874015748031497,
          "duration": 0.125
        },
        {
          "name": "G#2",
          "midi": 44,
          "time": 9.625,
          "velocity": 0.7874015748031497,
          "duration": 0.125
        },
        {
          "name": "G#2",
          "midi": 44,
          "time": 10,
          "velocity": 0.5354330708661418,
          "duration": 0.08333333333333393
        },
        {
          "name": "G#2",
          "midi": 44,
          "time": 10.75,
          "velocity": 0.5118110236220472,
          "duration": 0.09895833333333393
        },
        {
          "name": "G#2",
          "midi": 44,
          "time": 11.25,
          "velocity": 0.7874015748031497,
          "duration": 0.125
        },
        {
          "name": "G#2",
          "midi": 44,
          "time": 11.625,
          "velocity": 0.7874015748031497,
          "duration": 0.125
        },
        {
          "name": "C2",
          "midi": 36,
          "time": 12,
          "velocity": 0.7874015748031497,
          "duration": 0.125
        },
        {
          "name": "G#2",
          "midi": 44,
          "time": 12,
          "velocity": 0.4881889763779528,
          "duration": 0.09895833333333393
        },
        {
          "name": "G#2",
          "midi": 44,
          "time": 12.5,
          "velocity": 0.7874015748031497,
          "duration": 0.125
        },
        {
          "name": "G#2",
          "midi": 44,
          "time": 13.25,
          "velocity": 0.7874015748031497,
          "duration": 0.125
        },
        {
          "name": "G#2",
          "midi": 44,
          "time": 13.625,
          "velocity": 0.7874015748031497,
          "duration": 0.125
        },
        {
          "name": "G#2",
          "midi": 44,
          "time": 14,
          "velocity": 0.5354330708661418,
          "duration": 0.08333333333333393
        },
        {
          "name": "G#2",
          "midi": 44,
          "time": 14.75,
          "velocity": 0.5118110236220472,
          "duration": 0.09895833333333393
        },
        {
          "name": "G#2",
          "midi": 44,
          "time": 15.25,
          "velocity": 0.7874015748031497,
          "duration": 0.125
        },
        {
          "name": "G#2",
          "midi": 44,
          "time": 15.625,
          "velocity": 0.7874015748031497,
          "duration": 0.125
        },
        {
          "name": "C2",
          "midi": 36,
          "time": 16,
          "velocity": 0.7874015748031497,
          "duration": 0.125
        },
        {
          "name": "G#2",
          "midi": 44,
          "time": 16,
          "velocity": 0.4881889763779528,
          "duration": 0.09895833333333215
        },
        {
          "name": "C#2",
          "midi": 37,
          "time": 16.5,
          "velocity": 0.7874015748031497,
          "duration": 0.125
        },
        {
          "name": "G#2",
          "midi": 44,
          "time": 16.5,
          "velocity": 0.7874015748031497,
          "duration": 0.125
        },
        {
          "name": "C2",
          "midi": 36,
          "time": 16.75,
          "velocity": 0.7874015748031497,
          "duration": 0.125
        },
        {
          "name": "G#2",
          "midi": 44,
          "time": 17.25,
          "velocity": 0.7874015748031497,
          "duration": 0.125
        },
        {
          "name": "C#2",
          "midi": 37,
          "time": 17.5,
          "velocity": 0.7874015748031497,
          "duration": 0.125
        },
        {
          "name": "G#2",
          "midi": 44,
          "time": 17.625,
          "velocity": 0.7874015748031497,
          "duration": 0.125
        },
        {
          "name": "C2",
          "midi": 36,
          "time": 18,
          "velocity": 0.7874015748031497,
          "duration": 0.125
        },
        {
          "name": "G#2",
          "midi": 44,
          "time": 18,
          "velocity": 0.5354330708661418,
          "duration": 0.08333333333333215
        },
        {
          "name": "C#2",
          "midi": 37,
          "time": 18.5,
          "velocity": 0.7874015748031497,
          "duration": 0.125
        },
        {
          "name": "C2",
          "midi": 36,
          "time": 18.75,
          "velocity": 0.7874015748031497,
          "duration": 0.125
        },
        {
          "name": "G#2",
          "midi": 44,
          "time": 18.75,
          "velocity": 0.5118110236220472,
          "duration": 0.09895833333333215
        },
        {
          "name": "G#2",
          "midi": 44,
          "time": 19.25,
          "velocity": 0.7874015748031497,
          "duration": 0.125
        },
        {
          "name": "C#2",
          "midi": 37,
          "time": 19.5,
          "velocity": 0.7874015748031497,
          "duration": 0.125
        },
        {
          "name": "F#2",
          "midi": 42,
          "time": 19.5,
          "velocity": 0.7874015748031497,
          "duration": 0.125
        },
        {
          "name": "G#2",
          "midi": 44,
          "time": 19.625,
          "velocity": 0.7874015748031497,
          "duration": 0.125
        },
        {
          "name": "C2",
          "midi": 36,
          "time": 20,
          "velocity": 0.7874015748031497,
          "duration": 0.125
        },
        {
          "name": "G#2",
          "midi": 44,
          "time": 20,
          "velocity": 0.4881889763779528,
          "duration": 0.09895833333333215
        },
        {
          "name": "C#2",
          "midi": 37,
          "time": 20.5,
          "velocity": 0.7874015748031497,
          "duration": 0.125
        },
        {
          "name": "G#2",
          "midi": 44,
          "time": 20.5,
          "velocity": 0.7874015748031497,
          "duration": 0.125
        },
        {
          "name": "C2",
          "midi": 36,
          "time": 20.75,
          "velocity": 0.7874015748031497,
          "duration": 0.125
        },
        {
          "name": "G#2",
          "midi": 44,
          "time": 21.25,
          "velocity": 0.7874015748031497,
          "duration": 0.125
        },
        {
          "name": "C#2",
          "midi": 37,
          "time": 21.5,
          "velocity": 0.7874015748031497,
          "duration": 0.125
        },
        {
          "name": "G#2",
          "midi": 44,
          "time": 21.625,
          "velocity": 0.7874015748031497,
          "duration": 0.125
        },
        {
          "name": "C2",
          "midi": 36,
          "time": 22,
          "velocity": 0.7874015748031497,
          "duration": 0.125
        },
        {
          "name": "G#2",
          "midi": 44,
          "time": 22,
          "velocity": 0.5354330708661418,
          "duration": 0.08333333333333215
        },
        {
          "name": "C#2",
          "midi": 37,
          "time": 22.5,
          "velocity": 0.7874015748031497,
          "duration": 0.125
        },
        {
          "name": "C2",
          "midi": 36,
          "time": 22.75,
          "velocity": 0.7874015748031497,
          "duration": 0.125
        },
        {
          "name": "G#2",
          "midi": 44,
          "time": 22.75,
          "velocity": 0.5118110236220472,
          "duration": 0.09895833333333215
        },
        {
          "name": "G#2",
          "midi": 44,
          "time": 23.25,
          "velocity": 0.7874015748031497,
          "duration": 0.125
        },
        {
          "name": "C#2",
          "midi": 37,
          "time": 23.5,
          "velocity": 0.7874015748031497,
          "duration": 0.125
        },
        {
          "name": "F#2",
          "midi": 42,
          "time": 23.5,
          "velocity": 0.7874015748031497,
          "duration": 0.125
        },
        {
          "name": "G#2",
          "midi": 44,
          "time": 23.625,
          "velocity": 0.7874015748031497,
          "duration": 0.125
        },
        {
          "name": "C2",
          "midi": 36,
          "time": 24,
          "velocity": 0.7874015748031497,
          "duration": 0.125
        },
        {
          "name": "G#2",
          "midi": 44,
          "time": 24,
          "velocity": 0.4881889763779528,
          "duration": 0.09895833333333215
        },
        {
          "name": "C#2",
          "midi": 37,
          "time": 24.5,
          "velocity": 0.7874015748031497,
          "duration": 0.125
        },
        {
          "name": "G#2",
          "midi": 44,
          "time": 24.5,
          "velocity": 0.7874015748031497,
          "duration": 0.125
        },
        {
          "name": "C2",
          "midi": 36,
          "time": 24.75,
          "velocity": 0.7874015748031497,
          "duration": 0.125
        },
        {
          "name": "G#2",
          "midi": 44,
          "time": 25.25,
          "velocity": 0.7874015748031497,
          "duration": 0.125
        },
        {
          "name": "C#2",
          "midi": 37,
          "time": 25.5,
          "velocity": 0.7874015748031497,
          "duration": 0.125
        },
        {
          "name": "G#2",
          "midi": 44,
          "time": 25.625,
          "velocity": 0.7874015748031497,
          "duration": 0.125
        },
        {
          "name": "C2",
          "midi": 36,
          "time": 26,
          "velocity": 0.7874015748031497,
          "duration": 0.125
        },
        {
          "name": "G#2",
          "midi": 44,
          "time": 26,
          "velocity": 0.5354330708661418,
          "duration": 0.08333333333333215
        },
        {
          "name": "C#2",
          "midi": 37,
          "time": 26.5,
          "velocity": 0.7874015748031497,
          "duration": 0.125
        },
        {
          "name": "C2",
          "midi": 36,
          "time": 26.75,
          "velocity": 0.7874015748031497,
          "duration": 0.125
        },
        {
          "name": "G#2",
          "midi": 44,
          "time": 26.75,
          "velocity": 0.5118110236220472,
          "duration": 0.09895833333333215
        },
        {
          "name": "G#2",
          "midi": 44,
          "time": 27.25,
          "velocity": 0.7874015748031497,
          "duration": 0.125
        },
        {
          "name": "C#2",
          "midi": 37,
          "time": 27.5,
          "velocity": 0.7874015748031497,
          "duration": 0.125
        },
        {
          "name": "F#2",
          "midi": 42,
          "time": 27.5,
          "velocity": 0.7874015748031497,
          "duration": 0.125
        },
        {
          "name": "G#2",
          "midi": 44,
          "time": 27.625,
          "velocity": 0.7874015748031497,
          "duration": 0.125
        },
        {
          "name": "C2",
          "midi": 36,
          "time": 28,
          "velocity": 0.7874015748031497,
          "duration": 0.125
        },
        {
          "name": "G#2",
          "midi": 44,
          "time": 28,
          "velocity": 0.4881889763779528,
          "duration": 0.09895833333333215
        },
        {
          "name": "C#2",
          "midi": 37,
          "time": 28.5,
          "velocity": 0.7874015748031497,
          "duration": 0.125
        },
        {
          "name": "G#2",
          "midi": 44,
          "time": 28.5,
          "velocity": 0.7874015748031497,
          "duration": 0.125
        },
        {
          "name": "C2",
          "midi": 36,
          "time": 28.75,
          "velocity": 0.7874015748031497,
          "duration": 0.125
        },
        {
          "name": "G#2",
          "midi": 44,
          "time": 29.25,
          "velocity": 0.7874015748031497,
          "duration": 0.125
        },
        {
          "name": "C#2",
          "midi": 37,
          "time": 29.5,
          "velocity": 0.7874015748031497,
          "duration": 0.125
        },
        {
          "name": "G#2",
          "midi": 44,
          "time": 29.625,
          "velocity": 0.7874015748031497,
          "duration": 0.125
        },
        {
          "name": "C2",
          "midi": 36,
          "time": 30,
          "velocity": 0.7874015748031497,
          "duration": 0.125
        },
        {
          "name": "G#2",
          "midi": 44,
          "time": 30,
          "velocity": 0.5354330708661418,
          "duration": 0.08333333333333215
        },
        {
          "name": "C#2",
          "midi": 37,
          "time": 30.5,
          "velocity": 0.7874015748031497,
          "duration": 0.125
        },
        {
          "name": "C2",
          "midi": 36,
          "time": 30.75,
          "velocity": 0.7874015748031497,
          "duration": 0.125
        },
        {
          "name": "G#2",
          "midi": 44,
          "time": 30.75,
          "velocity": 0.5118110236220472,
          "duration": 0.09895833333333215
        },
        {
          "name": "G#2",
          "midi": 44,
          "time": 31.25,
          "velocity": 0.7874015748031497,
          "duration": 0.125
        },
        {
          "name": "C#2",
          "midi": 37,
          "time": 31.5,
          "velocity": 0.7874015748031497,
          "duration": 0.125
        },
        {
          "name": "F#2",
          "midi": 42,
          "time": 31.5,
          "velocity": 0.7874015748031497,
          "duration": 0.125
        },
        {
          "name": "G#2",
          "midi": 44,
          "time": 31.625,
          "velocity": 0.7874015748031497,
          "duration": 0.125
        },
        {
          "name": "C2",
          "midi": 36,
          "time": 32,
          "velocity": 0.7874015748031497,
          "duration": 0.125
        },
        {
          "name": "G#2",
          "midi": 44,
          "time": 32,
          "velocity": 0.4881889763779528,
          "duration": 0.0989583333333357
        },
        {
          "name": "C#2",
          "midi": 37,
          "time": 32.5,
          "velocity": 0.7874015748031497,
          "duration": 0.125
        },
        {
          "name": "G#2",
          "midi": 44,
          "time": 32.5,
          "velocity": 0.7874015748031497,
          "duration": 0.125
        },
        {
          "name": "C2",
          "midi": 36,
          "time": 32.75,
          "velocity": 0.7874015748031497,
          "duration": 0.125
        },
        {
          "name": "G#2",
          "midi": 44,
          "time": 33.25,
          "velocity": 0.7874015748031497,
          "duration": 0.125
        },
        {
          "name": "C#2",
          "midi": 37,
          "time": 33.5,
          "velocity": 0.7874015748031497,
          "duration": 0.125
        },
        {
          "name": "G#2",
          "midi": 44,
          "time": 33.625,
          "velocity": 0.7874015748031497,
          "duration": 0.125
        },
        {
          "name": "C#2",
          "midi": 37,
          "time": 33.75,
          "velocity": 0.7874015748031497,
          "duration": 0.125
        },
        {
          "name": "C2",
          "midi": 36,
          "time": 34,
          "velocity": 0.7874015748031497,
          "duration": 0.125
        },
        {
          "name": "G#2",
          "midi": 44,
          "time": 34,
          "velocity": 0.5354330708661418,
          "duration": 0.0833333333333357
        },
        {
          "name": "C#2",
          "midi": 37,
          "time": 34.5,
          "velocity": 0.7874015748031497,
          "duration": 0.125
        },
        {
          "name": "G#2",
          "midi": 44,
          "time": 34.5,
          "velocity": 0.7874015748031497,
          "duration": 0.125
        },
        {
          "name": "C2",
          "midi": 36,
          "time": 34.75,
          "velocity": 0.7874015748031497,
          "duration": 0.125
        },
        {
          "name": "G#2",
          "midi": 44,
          "time": 34.75,
          "velocity": 0.5118110236220472,
          "duration": 0.0989583333333357
        },
        {
          "name": "G#2",
          "midi": 44,
          "time": 35.25,
          "velocity": 0.7874015748031497,
          "duration": 0.125
        },
        {
          "name": "C#2",
          "midi": 37,
          "time": 35.5,
          "velocity": 0.7874015748031497,
          "duration": 0.125
        },
        {
          "name": "F#2",
          "midi": 42,
          "time": 35.5,
          "velocity": 0.7874015748031497,
          "duration": 0.125
        },
        {
          "name": "C#2",
          "midi": 37,
          "time": 35.625,
          "velocity": 0.7874015748031497,
          "duration": 0.125
        },
        {
          "name": "G#2",
          "midi": 44,
          "time": 35.625,
          "velocity": 0.7874015748031497,
          "duration": 0.125
        },
        {
          "name": "C#2",
          "midi": 37,
          "time": 35.75,
          "velocity": 0.7874015748031497,
          "duration": 0.125
        },
        {
          "name": "C#3",
          "midi": 49,
          "time": 35.75,
          "velocity": 0.7874015748031497,
          "duration": 0.125
        },
        {
          "name": "C#2",
          "midi": 37,
          "time": 35.875,
          "velocity": 0.7874015748031497,
          "duration": 0.125
        },
        {
          "name": "G#2",
          "midi": 44,
          "time": 35.875,
          "velocity": 0.7874015748031497,
          "duration": 0.125
        },
        {
          "name": "C2",
          "midi": 36,
          "time": 36,
          "velocity": 0.7874015748031497,
          "duration": 0.125
        },
        {
          "name": "G#2",
          "midi": 44,
          "time": 36,
          "velocity": 0.4881889763779528,
          "duration": 0.0989583333333357
        },
        {
          "name": "G#2",
          "midi": 44,
          "time": 36.5,
          "velocity": 0.7874015748031497,
          "duration": 0.125
        },
        {
          "name": "G#2",
          "midi": 44,
          "time": 37.25,
          "velocity": 0.7874015748031497,
          "duration": 0.125
        },
        {
          "name": "G#2",
          "midi": 44,
          "time": 37.625,
          "velocity": 0.7874015748031497,
          "duration": 0.125
        },
        {
          "name": "C2",
          "midi": 36,
          "time": 38,
          "velocity": 0.7874015748031497,
          "duration": 0.125
        },
        {
          "name": "G#2",
          "midi": 44,
          "time": 38,
          "velocity": 0.5354330708661418,
          "duration": 0.0833333333333357
        },
        {
          "name": "C2",
          "midi": 36,
          "time": 38.125,
          "velocity": 0.7874015748031497,
          "duration": 0.125
        },
        {
          "name": "C2",
          "midi": 36,
          "time": 38.75,
          "velocity": 0.7874015748031497,
          "duration": 0.125
        },
        {
          "name": "G#2",
          "midi": 44,
          "time": 38.75,
          "velocity": 0.5118110236220472,
          "duration": 0.0989583333333357
        },
        {
          "name": "C2",
          "midi": 36,
          "time": 39,
          "velocity": 0.7874015748031497,
          "duration": 0.125
        },
        {
          "name": "G#2",
          "midi": 44,
          "time": 39.25,
          "velocity": 0.7874015748031497,
          "duration": 0.125
        },
        {
          "name": "C2",
          "midi": 36,
          "time": 39.5,
          "velocity": 0.7874015748031497,
          "duration": 0.125
        },
        {
          "name": "G#2",
          "midi": 44,
          "time": 39.625,
          "velocity": 0.7874015748031497,
          "duration": 0.125
        },
        {
          "name": "G#2",
          "midi": 44,
          "time": 39.75,
          "velocity": 0.7874015748031497,
          "duration": 0.125
        },
        {
          "name": "G#2",
          "midi": 44,
          "time": 39.875,
          "velocity": 0.7874015748031497,
          "duration": 0.125
        },
        {
          "name": "C2",
          "midi": 36,
          "time": 40,
          "velocity": 0.7874015748031497,
          "duration": 0.125
        },
        {
          "name": "G#2",
          "midi": 44,
          "time": 40,
          "velocity": 0.4881889763779528,
          "duration": 0.0989583333333357
        },
        {
          "name": "C#2",
          "midi": 37,
          "time": 40.5,
          "velocity": 0.7874015748031497,
          "duration": 0.125
        },
        {
          "name": "G#2",
          "midi": 44,
          "time": 40.5,
          "velocity": 0.7874015748031497,
          "duration": 0.125
        },
        {
          "name": "C2",
          "midi": 36,
          "time": 40.75,
          "velocity": 0.7874015748031497,
          "duration": 0.125
        },
        {
          "name": "G#2",
          "midi": 44,
          "time": 41.25,
          "velocity": 0.7874015748031497,
          "duration": 0.125
        },
        {
          "name": "C#2",
          "midi": 37,
          "time": 41.5,
          "velocity": 0.7874015748031497,
          "duration": 0.125
        },
        {
          "name": "G#2",
          "midi": 44,
          "time": 41.625,
          "velocity": 0.7874015748031497,
          "duration": 0.125
        },
        {
          "name": "C#2",
          "midi": 37,
          "time": 41.75,
          "velocity": 0.7874015748031497,
          "duration": 0.125
        },
        {
          "name": "C2",
          "midi": 36,
          "time": 42,
          "velocity": 0.7874015748031497,
          "duration": 0.125
        },
        {
          "name": "G#2",
          "midi": 44,
          "time": 42,
          "velocity": 0.5354330708661418,
          "duration": 0.0833333333333357
        },
        {
          "name": "C#2",
          "midi": 37,
          "time": 42.5,
          "velocity": 0.7874015748031497,
          "duration": 0.125
        },
        {
          "name": "G#2",
          "midi": 44,
          "time": 42.5,
          "velocity": 0.7874015748031497,
          "duration": 0.125
        },
        {
          "name": "C2",
          "midi": 36,
          "time": 42.75,
          "velocity": 0.7874015748031497,
          "duration": 0.125
        },
        {
          "name": "G#2",
          "midi": 44,
          "time": 42.75,
          "velocity": 0.5118110236220472,
          "duration": 0.0989583333333357
        },
        {
          "name": "G#2",
          "midi": 44,
          "time": 43.25,
          "velocity": 0.7874015748031497,
          "duration": 0.125
        },
        {
          "name": "C#2",
          "midi": 37,
          "time": 43.5,
          "velocity": 0.7874015748031497,
          "duration": 0.125
        },
        {
          "name": "F#2",
          "midi": 42,
          "time": 43.5,
          "velocity": 0.7874015748031497,
          "duration": 0.125
        },
        {
          "name": "C#2",
          "midi": 37,
          "time": 43.625,
          "velocity": 0.7874015748031497,
          "duration": 0.125
        },
        {
          "name": "G#2",
          "midi": 44,
          "time": 43.625,
          "velocity": 0.7874015748031497,
          "duration": 0.125
        },
        {
          "name": "C#2",
          "midi": 37,
          "time": 43.75,
          "velocity": 0.7874015748031497,
          "duration": 0.125
        },
        {
          "name": "C#3",
          "midi": 49,
          "time": 43.75,
          "velocity": 0.7874015748031497,
          "duration": 0.125
        },
        {
          "name": "C#2",
          "midi": 37,
          "time": 43.875,
          "velocity": 0.7874015748031497,
          "duration": 0.125
        },
        {
          "name": "G#2",
          "midi": 44,
          "time": 43.875,
          "velocity": 0.7874015748031497,
          "duration": 0.125
        },
        {
          "name": "C2",
          "midi": 36,
          "time": 44,
          "velocity": 0.7874015748031497,
          "duration": 0.125
        },
        {
          "name": "G#2",
          "midi": 44,
          "time": 44,
          "velocity": 0.4881889763779528,
          "duration": 0.0989583333333357
        },
        {
          "name": "G#2",
          "midi": 44,
          "time": 44.5,
          "velocity": 0.7874015748031497,
          "duration": 0.125
        },
        {
          "name": "G#2",
          "midi": 44,
          "time": 45.25,
          "velocity": 0.7874015748031497,
          "duration": 0.125
        },
        {
          "name": "G#2",
          "midi": 44,
          "time": 45.625,
          "velocity": 0.7874015748031497,
          "duration": 0.125
        },
        {
          "name": "C2",
          "midi": 36,
          "time": 46,
          "velocity": 0.7874015748031497,
          "duration": 0.125
        },
        {
          "name": "G#2",
          "midi": 44,
          "time": 46,
          "velocity": 0.5354330708661418,
          "duration": 0.0833333333333357
        },
        {
          "name": "C2",
          "midi": 36,
          "time": 46.125,
          "velocity": 0.7874015748031497,
          "duration": 0.125
        },
        {
          "name": "C2",
          "midi": 36,
          "time": 46.75,
          "velocity": 0.7874015748031497,
          "duration": 0.125
        },
        {
          "name": "G#2",
          "midi": 44,
          "time": 46.75,
          "velocity": 0.5118110236220472,
          "duration": 0.0989583333333357
        },
        {
          "name": "C2",
          "midi": 36,
          "time": 47,
          "velocity": 0.7874015748031497,
          "duration": 0.125
        },
        {
          "name": "G#2",
          "midi": 44,
          "time": 47.25,
          "velocity": 0.7874015748031497,
          "duration": 0.125
        },
        {
          "name": "C2",
          "midi": 36,
          "time": 47.5,
          "velocity": 0.7874015748031497,
          "duration": 0.125
        },
        {
          "name": "G#2",
          "midi": 44,
          "time": 47.625,
          "velocity": 0.7874015748031497,
          "duration": 0.125
        },
        {
          "name": "G#2",
          "midi": 44,
          "time": 47.75,
          "velocity": 0.7874015748031497,
          "duration": 0.125
        },
        {
          "name": "G#2",
          "midi": 44,
          "time": 47.875,
          "velocity": 0.7874015748031497,
          "duration": 0.125
        },
        {
          "name": "C2",
          "midi": 36,
          "time": 48,
          "velocity": 0.7874015748031497,
          "duration": 0.125
        },
        {
          "name": "G#2",
          "midi": 44,
          "time": 48,
          "velocity": 0.4881889763779528,
          "duration": 0.0989583333333357
        },
        {
          "name": "C#2",
          "midi": 37,
          "time": 48.5,
          "velocity": 0.7874015748031497,
          "duration": 0.125
        },
        {
          "name": "G#2",
          "midi": 44,
          "time": 48.5,
          "velocity": 0.7874015748031497,
          "duration": 0.125
        },
        {
          "name": "C2",
          "midi": 36,
          "time": 48.75,
          "velocity": 0.7874015748031497,
          "duration": 0.125
        },
        {
          "name": "G#2",
          "midi": 44,
          "time": 49.25,
          "velocity": 0.7874015748031497,
          "duration": 0.125
        },
        {
          "name": "C#2",
          "midi": 37,
          "time": 49.5,
          "velocity": 0.7874015748031497,
          "duration": 0.125
        },
        {
          "name": "G#2",
          "midi": 44,
          "time": 49.625,
          "velocity": 0.7874015748031497,
          "duration": 0.125
        },
        {
          "name": "C2",
          "midi": 36,
          "time": 50,
          "velocity": 0.7874015748031497,
          "duration": 0.125
        },
        {
          "name": "G#2",
          "midi": 44,
          "time": 50,
          "velocity": 0.5354330708661418,
          "duration": 0.0833333333333357
        },
        {
          "name": "C#2",
          "midi": 37,
          "time": 50.5,
          "velocity": 0.7874015748031497,
          "duration": 0.125
        },
        {
          "name": "C2",
          "midi": 36,
          "time": 50.75,
          "velocity": 0.7874015748031497,
          "duration": 0.125
        },
        {
          "name": "G#2",
          "midi": 44,
          "time": 50.75,
          "velocity": 0.5118110236220472,
          "duration": 0.0989583333333357
        },
        {
          "name": "G#2",
          "midi": 44,
          "time": 51.25,
          "velocity": 0.7874015748031497,
          "duration": 0.125
        },
        {
          "name": "C#2",
          "midi": 37,
          "time": 51.5,
          "velocity": 0.7874015748031497,
          "duration": 0.125
        },
        {
          "name": "F#2",
          "midi": 42,
          "time": 51.5,
          "velocity": 0.7874015748031497,
          "duration": 0.125
        },
        {
          "name": "G#2",
          "midi": 44,
          "time": 51.625,
          "velocity": 0.7874015748031497,
          "duration": 0.125
        },
        {
          "name": "C2",
          "midi": 36,
          "time": 52,
          "velocity": 0.7874015748031497,
          "duration": 0.125
        },
        {
          "name": "G#2",
          "midi": 44,
          "time": 52,
          "velocity": 0.4881889763779528,
          "duration": 0.0989583333333357
        },
        {
          "name": "C#2",
          "midi": 37,
          "time": 52.5,
          "velocity": 0.7874015748031497,
          "duration": 0.125
        },
        {
          "name": "G#2",
          "midi": 44,
          "time": 52.5,
          "velocity": 0.7874015748031497,
          "duration": 0.125
        },
        {
          "name": "C2",
          "midi": 36,
          "time": 52.75,
          "velocity": 0.7874015748031497,
          "duration": 0.125
        },
        {
          "name": "G#2",
          "midi": 44,
          "time": 53.25,
          "velocity": 0.7874015748031497,
          "duration": 0.125
        },
        {
          "name": "C#2",
          "midi": 37,
          "time": 53.5,
          "velocity": 0.7874015748031497,
          "duration": 0.125
        },
        {
          "name": "G#2",
          "midi": 44,
          "time": 53.625,
          "velocity": 0.7874015748031497,
          "duration": 0.125
        },
        {
          "name": "C2",
          "midi": 36,
          "time": 54,
          "velocity": 0.7874015748031497,
          "duration": 0.125
        },
        {
          "name": "G#2",
          "midi": 44,
          "time": 54,
          "velocity": 0.5354330708661418,
          "duration": 0.0833333333333357
        },
        {
          "name": "C#2",
          "midi": 37,
          "time": 54.5,
          "velocity": 0.7874015748031497,
          "duration": 0.125
        },
        {
          "name": "C2",
          "midi": 36,
          "time": 54.75,
          "velocity": 0.7874015748031497,
          "duration": 0.125
        },
        {
          "name": "G#2",
          "midi": 44,
          "time": 54.75,
          "velocity": 0.5118110236220472,
          "duration": 0.0989583333333357
        },
        {
          "name": "G#2",
          "midi": 44,
          "time": 55.25,
          "velocity": 0.7874015748031497,
          "duration": 0.125
        },
        {
          "name": "C#2",
          "midi": 37,
          "time": 55.5,
          "velocity": 0.7874015748031497,
          "duration": 0.125
        },
        {
          "name": "F#2",
          "midi": 42,
          "time": 55.5,
          "velocity": 0.7874015748031497,
          "duration": 0.125
        },
        {
          "name": "G#2",
          "midi": 44,
          "time": 55.625,
          "velocity": 0.7874015748031497,
          "duration": 0.125
        },
        {
          "name": "C2",
          "midi": 36,
          "time": 56,
          "velocity": 0.7874015748031497,
          "duration": 0.125
        },
        {
          "name": "G#2",
          "midi": 44,
          "time": 56,
          "velocity": 0.4881889763779528,
          "duration": 0.0989583333333357
        },
        {
          "name": "C#2",
          "midi": 37,
          "time": 56.5,
          "velocity": 0.7874015748031497,
          "duration": 0.125
        },
        {
          "name": "G#2",
          "midi": 44,
          "time": 56.5,
          "velocity": 0.7874015748031497,
          "duration": 0.125
        },
        {
          "name": "C2",
          "midi": 36,
          "time": 56.75,
          "velocity": 0.7874015748031497,
          "duration": 0.125
        },
        {
          "name": "G#2",
          "midi": 44,
          "time": 57.25,
          "velocity": 0.7874015748031497,
          "duration": 0.125
        },
        {
          "name": "C#2",
          "midi": 37,
          "time": 57.5,
          "velocity": 0.7874015748031497,
          "duration": 0.125
        },
        {
          "name": "G#2",
          "midi": 44,
          "time": 57.625,
          "velocity": 0.7874015748031497,
          "duration": 0.125
        },
        {
          "name": "C2",
          "midi": 36,
          "time": 58,
          "velocity": 0.7874015748031497,
          "duration": 0.125
        },
        {
          "name": "G#2",
          "midi": 44,
          "time": 58,
          "velocity": 0.5354330708661418,
          "duration": 0.0833333333333357
        },
        {
          "name": "C#2",
          "midi": 37,
          "time": 58.5,
          "velocity": 0.7874015748031497,
          "duration": 0.125
        },
        {
          "name": "C2",
          "midi": 36,
          "time": 58.75,
          "velocity": 0.7874015748031497,
          "duration": 0.125
        },
        {
          "name": "G#2",
          "midi": 44,
          "time": 58.75,
          "velocity": 0.5118110236220472,
          "duration": 0.0989583333333357
        },
        {
          "name": "G#2",
          "midi": 44,
          "time": 59.25,
          "velocity": 0.7874015748031497,
          "duration": 0.125
        },
        {
          "name": "C#2",
          "midi": 37,
          "time": 59.5,
          "velocity": 0.7874015748031497,
          "duration": 0.125
        },
        {
          "name": "F#2",
          "midi": 42,
          "time": 59.5,
          "velocity": 0.7874015748031497,
          "duration": 0.125
        },
        {
          "name": "G#2",
          "midi": 44,
          "time": 59.625,
          "velocity": 0.7874015748031497,
          "duration": 0.125
        },
        {
          "name": "C2",
          "midi": 36,
          "time": 60,
          "velocity": 0.7874015748031497,
          "duration": 0.125
        },
        {
          "name": "G#2",
          "midi": 44,
          "time": 60,
          "velocity": 0.4881889763779528,
          "duration": 0.0989583333333357
        },
        {
          "name": "C#2",
          "midi": 37,
          "time": 60.5,
          "velocity": 0.7874015748031497,
          "duration": 0.125
        },
        {
          "name": "G#2",
          "midi": 44,
          "time": 60.5,
          "velocity": 0.7874015748031497,
          "duration": 0.125
        },
        {
          "name": "C2",
          "midi": 36,
          "time": 60.75,
          "velocity": 0.7874015748031497,
          "duration": 0.125
        },
        {
          "name": "G#2",
          "midi": 44,
          "time": 61.25,
          "velocity": 0.7874015748031497,
          "duration": 0.125
        },
        {
          "name": "C#2",
          "midi": 37,
          "time": 61.5,
          "velocity": 0.7874015748031497,
          "duration": 0.125
        },
        {
          "name": "G#2",
          "midi": 44,
          "time": 61.625,
          "velocity": 0.7874015748031497,
          "duration": 0.125
        },
        {
          "name": "C2",
          "midi": 36,
          "time": 62,
          "velocity": 0.7874015748031497,
          "duration": 0.125
        },
        {
          "name": "G#2",
          "midi": 44,
          "time": 62,
          "velocity": 0.5354330708661418,
          "duration": 0.0833333333333357
        },
        {
          "name": "C#2",
          "midi": 37,
          "time": 62.5,
          "velocity": 0.7874015748031497,
          "duration": 0.125
        },
        {
          "name": "C2",
          "midi": 36,
          "time": 62.75,
          "velocity": 0.7874015748031497,
          "duration": 0.125
        },
        {
          "name": "G#2",
          "midi": 44,
          "time": 62.75,
          "velocity": 0.5118110236220472,
          "duration": 0.0989583333333357
        },
        {
          "name": "G#2",
          "midi": 44,
          "time": 63.25,
          "velocity": 0.7874015748031497,
          "duration": 0.125
        },
        {
          "name": "C#2",
          "midi": 37,
          "time": 63.5,
          "velocity": 0.7874015748031497,
          "duration": 0.125
        },
        {
          "name": "F#2",
          "midi": 42,
          "time": 63.5,
          "velocity": 0.7874015748031497,
          "duration": 0.125
        },
        {
          "name": "G#2",
          "midi": 44,
          "time": 63.625,
          "velocity": 0.7874015748031497,
          "duration": 0.125
        },
        {
          "name": "C2",
          "midi": 36,
          "time": 64,
          "velocity": 0.7874015748031497,
          "duration": 0.125
        },
        {
          "name": "G#2",
          "midi": 44,
          "time": 64,
          "velocity": 0.4881889763779528,
          "duration": 0.0989583333333286
        },
        {
          "name": "G#2",
          "midi": 44,
          "time": 64.5,
          "velocity": 0.7874015748031497,
          "duration": 0.125
        },
        {
          "name": "G#2",
          "midi": 44,
          "time": 65.25,
          "velocity": 0.7874015748031497,
          "duration": 0.125
        },
        {
          "name": "G#2",
          "midi": 44,
          "time": 65.625,
          "velocity": 0.7874015748031497,
          "duration": 0.125
        },
        {
          "name": "G#2",
          "midi": 44,
          "time": 66,
          "velocity": 0.5354330708661418,
          "duration": 0.0833333333333286
        },
        {
          "name": "G#2",
          "midi": 44,
          "time": 66.75,
          "velocity": 0.5118110236220472,
          "duration": 0.0989583333333286
        },
        {
          "name": "G#2",
          "midi": 44,
          "time": 67.25,
          "velocity": 0.7874015748031497,
          "duration": 0.125
        },
        {
          "name": "G#2",
          "midi": 44,
          "time": 67.625,
          "velocity": 0.7874015748031497,
          "duration": 0.125
        },
        {
          "name": "C2",
          "midi": 36,
          "time": 68,
          "velocity": 0.7874015748031497,
          "duration": 0.125
        },
        {
          "name": "G#2",
          "midi": 44,
          "time": 68,
          "velocity": 0.4881889763779528,
          "duration": 0.0989583333333286
        },
        {
          "name": "G#2",
          "midi": 44,
          "time": 68.5,
          "velocity": 0.7874015748031497,
          "duration": 0.125
        },
        {
          "name": "G#2",
          "midi": 44,
          "time": 69.25,
          "velocity": 0.7874015748031497,
          "duration": 0.125
        },
        {
          "name": "G#2",
          "midi": 44,
          "time": 69.625,
          "velocity": 0.7874015748031497,
          "duration": 0.125
        },
        {
          "name": "G#2",
          "midi": 44,
          "time": 70,
          "velocity": 0.5354330708661418,
          "duration": 0.0833333333333286
        },
        {
          "name": "G#2",
          "midi": 44,
          "time": 70.75,
          "velocity": 0.5118110236220472,
          "duration": 0.0989583333333286
        },
        {
          "name": "G#2",
          "midi": 44,
          "time": 71.25,
          "velocity": 0.7874015748031497,
          "duration": 0.125
        },
        {
          "name": "G#2",
          "midi": 44,
          "time": 71.625,
          "velocity": 0.7874015748031497,
          "duration": 0.125
        },
        {
          "name": "C2",
          "midi": 36,
          "time": 72,
          "velocity": 0.7874015748031497,
          "duration": 0.125
        },
        {
          "name": "G#2",
          "midi": 44,
          "time": 72,
          "velocity": 0.4881889763779528,
          "duration": 0.0989583333333286
        },
        {
          "name": "C#2",
          "midi": 37,
          "time": 72.5,
          "velocity": 0.7874015748031497,
          "duration": 0.125
        },
        {
          "name": "G#2",
          "midi": 44,
          "time": 72.5,
          "velocity": 0.7874015748031497,
          "duration": 0.125
        },
        {
          "name": "C2",
          "midi": 36,
          "time": 72.75,
          "velocity": 0.7874015748031497,
          "duration": 0.125
        },
        {
          "name": "G#2",
          "midi": 44,
          "time": 73.25,
          "velocity": 0.7874015748031497,
          "duration": 0.125
        },
        {
          "name": "C#2",
          "midi": 37,
          "time": 73.5,
          "velocity": 0.7874015748031497,
          "duration": 0.125
        },
        {
          "name": "G#2",
          "midi": 44,
          "time": 73.625,
          "velocity": 0.7874015748031497,
          "duration": 0.125
        },
        {
          "name": "C#2",
          "midi": 37,
          "time": 73.75,
          "velocity": 0.7874015748031497,
          "duration": 0.125
        },
        {
          "name": "C2",
          "midi": 36,
          "time": 74,
          "velocity": 0.7874015748031497,
          "duration": 0.125
        },
        {
          "name": "G#2",
          "midi": 44,
          "time": 74,
          "velocity": 0.5354330708661418,
          "duration": 0.0833333333333286
        },
        {
          "name": "C#2",
          "midi": 37,
          "time": 74.5,
          "velocity": 0.7874015748031497,
          "duration": 0.125
        },
        {
          "name": "G#2",
          "midi": 44,
          "time": 74.5,
          "velocity": 0.7874015748031497,
          "duration": 0.125
        },
        {
          "name": "C2",
          "midi": 36,
          "time": 74.75,
          "velocity": 0.7874015748031497,
          "duration": 0.125
        },
        {
          "name": "G#2",
          "midi": 44,
          "time": 74.75,
          "velocity": 0.5118110236220472,
          "duration": 0.0989583333333286
        },
        {
          "name": "G#2",
          "midi": 44,
          "time": 75.25,
          "velocity": 0.7874015748031497,
          "duration": 0.125
        },
        {
          "name": "C#2",
          "midi": 37,
          "time": 75.5,
          "velocity": 0.7874015748031497,
          "duration": 0.125
        },
        {
          "name": "F#2",
          "midi": 42,
          "time": 75.5,
          "velocity": 0.7874015748031497,
          "duration": 0.125
        },
        {
          "name": "C#2",
          "midi": 37,
          "time": 75.625,
          "velocity": 0.7874015748031497,
          "duration": 0.125
        },
        {
          "name": "G#2",
          "midi": 44,
          "time": 75.625,
          "velocity": 0.7874015748031497,
          "duration": 0.125
        },
        {
          "name": "C#2",
          "midi": 37,
          "time": 75.75,
          "velocity": 0.7874015748031497,
          "duration": 0.125
        },
        {
          "name": "C#3",
          "midi": 49,
          "time": 75.75,
          "velocity": 0.7874015748031497,
          "duration": 0.125
        },
        {
          "name": "C#2",
          "midi": 37,
          "time": 75.875,
          "velocity": 0.7874015748031497,
          "duration": 0.125
        },
        {
          "name": "G#2",
          "midi": 44,
          "time": 75.875,
          "velocity": 0.7874015748031497,
          "duration": 0.125
        },
        {
          "name": "C2",
          "midi": 36,
          "time": 76,
          "velocity": 0.7874015748031497,
          "duration": 0.125
        },
        {
          "name": "G#2",
          "midi": 44,
          "time": 76,
          "velocity": 0.4881889763779528,
          "duration": 0.0989583333333286
        },
        {
          "name": "C#2",
          "midi": 37,
          "time": 76.5,
          "velocity": 0.7874015748031497,
          "duration": 0.125
        },
        {
          "name": "G#2",
          "midi": 44,
          "time": 76.5,
          "velocity": 0.7874015748031497,
          "duration": 0.125
        },
        {
          "name": "C2",
          "midi": 36,
          "time": 76.75,
          "velocity": 0.7874015748031497,
          "duration": 0.125
        },
        {
          "name": "G#2",
          "midi": 44,
          "time": 77.25,
          "velocity": 0.7874015748031497,
          "duration": 0.125
        },
        {
          "name": "C#2",
          "midi": 37,
          "time": 77.5,
          "velocity": 0.7874015748031497,
          "duration": 0.125
        },
        {
          "name": "G#2",
          "midi": 44,
          "time": 77.625,
          "velocity": 0.7874015748031497,
          "duration": 0.125
        },
        {
          "name": "C#2",
          "midi": 37,
          "time": 77.75,
          "velocity": 0.7874015748031497,
          "duration": 0.125
        },
        {
          "name": "C2",
          "midi": 36,
          "time": 78,
          "velocity": 0.7874015748031497,
          "duration": 0.125
        },
        {
          "name": "G#2",
          "midi": 44,
          "time": 78,
          "velocity": 0.5354330708661418,
          "duration": 0.0833333333333286
        },
        {
          "name": "C#2",
          "midi": 37,
          "time": 78.5,
          "velocity": 0.7874015748031497,
          "duration": 0.125
        },
        {
          "name": "G#2",
          "midi": 44,
          "time": 78.5,
          "velocity": 0.7874015748031497,
          "duration": 0.125
        },
        {
          "name": "C2",
          "midi": 36,
          "time": 78.75,
          "velocity": 0.7874015748031497,
          "duration": 0.125
        },
        {
          "name": "G#2",
          "midi": 44,
          "time": 78.75,
          "velocity": 0.5118110236220472,
          "duration": 0.0989583333333286
        },
        {
          "name": "G#2",
          "midi": 44,
          "time": 79.25,
          "velocity": 0.7874015748031497,
          "duration": 0.125
        },
        {
          "name": "C#2",
          "midi": 37,
          "time": 79.5,
          "velocity": 0.7874015748031497,
          "duration": 0.125
        },
        {
          "name": "F#2",
          "midi": 42,
          "time": 79.5,
          "velocity": 0.7874015748031497,
          "duration": 0.125
        },
        {
          "name": "C#2",
          "midi": 37,
          "time": 79.625,
          "velocity": 0.7874015748031497,
          "duration": 0.125
        },
        {
          "name": "G#2",
          "midi": 44,
          "time": 79.625,
          "velocity": 0.7874015748031497,
          "duration": 0.125
        },
        {
          "name": "C#2",
          "midi": 37,
          "time": 79.75,
          "velocity": 0.7874015748031497,
          "duration": 0.125
        },
        {
          "name": "C#3",
          "midi": 49,
          "time": 79.75,
          "velocity": 0.7874015748031497,
          "duration": 0.125
        },
        {
          "name": "C#2",
          "midi": 37,
          "time": 79.875,
          "velocity": 0.7874015748031497,
          "duration": 0.125
        },
        {
          "name": "G#2",
          "midi": 44,
          "time": 79.875,
          "velocity": 0.7874015748031497,
          "duration": 0.125
        },
        {
          "name": "C2",
          "midi": 36,
          "time": 80,
          "velocity": 0.7874015748031497,
          "duration": 0.125
        },
        {
          "name": "G#2",
          "midi": 44,
          "time": 80,
          "velocity": 0.4881889763779528,
          "duration": 0.0989583333333286
        },
        {
          "name": "G#2",
          "midi": 44,
          "time": 80.5,
          "velocity": 0.7874015748031497,
          "duration": 0.125
        },
        {
          "name": "G#2",
          "midi": 44,
          "time": 81.25,
          "velocity": 0.7874015748031497,
          "duration": 0.125
        },
        {
          "name": "G#2",
          "midi": 44,
          "time": 81.625,
          "velocity": 0.7874015748031497,
          "duration": 0.125
        },
        {
          "name": "C2",
          "midi": 36,
          "time": 82,
          "velocity": 0.7874015748031497,
          "duration": 0.125
        },
        {
          "name": "G#2",
          "midi": 44,
          "time": 82,
          "velocity": 0.5354330708661418,
          "duration": 0.0833333333333286
        },
        {
          "name": "C2",
          "midi": 36,
          "time": 82.125,
          "velocity": 0.7874015748031497,
          "duration": 0.125
        },
        {
          "name": "C2",
          "midi": 36,
          "time": 82.75,
          "velocity": 0.7874015748031497,
          "duration": 0.125
        },
        {
          "name": "G#2",
          "midi": 44,
          "time": 82.75,
          "velocity": 0.5118110236220472,
          "duration": 0.0989583333333286
        },
        {
          "name": "C2",
          "midi": 36,
          "time": 83,
          "velocity": 0.7874015748031497,
          "duration": 0.125
        },
        {
          "name": "G#2",
          "midi": 44,
          "time": 83.25,
          "velocity": 0.7874015748031497,
          "duration": 0.125
        },
        {
          "name": "C2",
          "midi": 36,
          "time": 83.5,
          "velocity": 0.7874015748031497,
          "duration": 0.125
        },
        {
          "name": "G#2",
          "midi": 44,
          "time": 83.625,
          "velocity": 0.7874015748031497,
          "duration": 0.125
        },
        {
          "name": "G#2",
          "midi": 44,
          "time": 83.75,
          "velocity": 0.7874015748031497,
          "duration": 0.125
        },
        {
          "name": "G#2",
          "midi": 44,
          "time": 83.875,
          "velocity": 0.7874015748031497,
          "duration": 0.125
        },
        {
          "name": "C2",
          "midi": 36,
          "time": 84,
          "velocity": 0.7874015748031497,
          "duration": 0.125
        },
        {
          "name": "G#2",
          "midi": 44,
          "time": 84,
          "velocity": 0.4881889763779528,
          "duration": 0.0989583333333286
        },
        {
          "name": "C#2",
          "midi": 37,
          "time": 84.5,
          "velocity": 0.7874015748031497,
          "duration": 0.125
        },
        {
          "name": "G#2",
          "midi": 44,
          "time": 84.5,
          "velocity": 0.7874015748031497,
          "duration": 0.125
        },
        {
          "name": "C2",
          "midi": 36,
          "time": 84.75,
          "velocity": 0.7874015748031497,
          "duration": 0.125
        },
        {
          "name": "G#2",
          "midi": 44,
          "time": 85.25,
          "velocity": 0.7874015748031497,
          "duration": 0.125
        },
        {
          "name": "C#2",
          "midi": 37,
          "time": 85.5,
          "velocity": 0.7874015748031497,
          "duration": 0.125
        },
        {
          "name": "G#2",
          "midi": 44,
          "time": 85.625,
          "velocity": 0.7874015748031497,
          "duration": 0.125
        },
        {
          "name": "C#2",
          "midi": 37,
          "time": 85.75,
          "velocity": 0.7874015748031497,
          "duration": 0.125
        },
        {
          "name": "C2",
          "midi": 36,
          "time": 86,
          "velocity": 0.7874015748031497,
          "duration": 0.125
        },
        {
          "name": "G#2",
          "midi": 44,
          "time": 86,
          "velocity": 0.5354330708661418,
          "duration": 0.0833333333333286
        },
        {
          "name": "C#2",
          "midi": 37,
          "time": 86.5,
          "velocity": 0.7874015748031497,
          "duration": 0.125
        },
        {
          "name": "G#2",
          "midi": 44,
          "time": 86.5,
          "velocity": 0.7874015748031497,
          "duration": 0.125
        },
        {
          "name": "C2",
          "midi": 36,
          "time": 86.75,
          "velocity": 0.7874015748031497,
          "duration": 0.125
        },
        {
          "name": "G#2",
          "midi": 44,
          "time": 86.75,
          "velocity": 0.5118110236220472,
          "duration": 0.0989583333333286
        },
        {
          "name": "G#2",
          "midi": 44,
          "time": 87.25,
          "velocity": 0.7874015748031497,
          "duration": 0.125
        },
        {
          "name": "C#2",
          "midi": 37,
          "time": 87.5,
          "velocity": 0.7874015748031497,
          "duration": 0.125
        },
        {
          "name": "F#2",
          "midi": 42,
          "time": 87.5,
          "velocity": 0.7874015748031497,
          "duration": 0.125
        },
        {
          "name": "C#2",
          "midi": 37,
          "time": 87.625,
          "velocity": 0.7874015748031497,
          "duration": 0.125
        },
        {
          "name": "G#2",
          "midi": 44,
          "time": 87.625,
          "velocity": 0.7874015748031497,
          "duration": 0.125
        },
        {
          "name": "C#2",
          "midi": 37,
          "time": 87.75,
          "velocity": 0.7874015748031497,
          "duration": 0.125
        },
        {
          "name": "C#3",
          "midi": 49,
          "time": 87.75,
          "velocity": 0.7874015748031497,
          "duration": 0.125
        },
        {
          "name": "C#2",
          "midi": 37,
          "time": 87.875,
          "velocity": 0.7874015748031497,
          "duration": 0.125
        },
        {
          "name": "G#2",
          "midi": 44,
          "time": 87.875,
          "velocity": 0.7874015748031497,
          "duration": 0.125
        },
        {
          "name": "C2",
          "midi": 36,
          "time": 88,
          "velocity": 0.7874015748031497,
          "duration": 0.125
        },
        {
          "name": "G#2",
          "midi": 44,
          "time": 88,
          "velocity": 0.4881889763779528,
          "duration": 0.0989583333333286
        },
        {
          "name": "G#2",
          "midi": 44,
          "time": 88.5,
          "velocity": 0.7874015748031497,
          "duration": 0.125
        },
        {
          "name": "G#2",
          "midi": 44,
          "time": 89.25,
          "velocity": 0.7874015748031497,
          "duration": 0.125
        },
        {
          "name": "G#2",
          "midi": 44,
          "time": 89.625,
          "velocity": 0.7874015748031497,
          "duration": 0.125
        },
        {
          "name": "C2",
          "midi": 36,
          "time": 90,
          "velocity": 0.7874015748031497,
          "duration": 0.125
        },
        {
          "name": "G#2",
          "midi": 44,
          "time": 90,
          "velocity": 0.5354330708661418,
          "duration": 0.0833333333333286
        },
        {
          "name": "C2",
          "midi": 36,
          "time": 90.125,
          "velocity": 0.7874015748031497,
          "duration": 0.125
        },
        {
          "name": "C2",
          "midi": 36,
          "time": 90.75,
          "velocity": 0.7874015748031497,
          "duration": 0.125
        },
        {
          "name": "G#2",
          "midi": 44,
          "time": 90.75,
          "velocity": 0.5118110236220472,
          "duration": 0.0989583333333286
        },
        {
          "name": "C2",
          "midi": 36,
          "time": 91,
          "velocity": 0.7874015748031497,
          "duration": 0.125
        },
        {
          "name": "G#2",
          "midi": 44,
          "time": 91.25,
          "velocity": 0.7874015748031497,
          "duration": 0.125
        },
        {
          "name": "C2",
          "midi": 36,
          "time": 91.5,
          "velocity": 0.7874015748031497,
          "duration": 0.125
        },
        {
          "name": "G#2",
          "midi": 44,
          "time": 91.625,
          "velocity": 0.7874015748031497,
          "duration": 0.125
        },
        {
          "name": "G#2",
          "midi": 44,
          "time": 91.75,
          "velocity": 0.7874015748031497,
          "duration": 0.125
        },
        {
          "name": "G#2",
          "midi": 44,
          "time": 91.875,
          "velocity": 0.7874015748031497,
          "duration": 0.125
        },
        {
          "name": "C2",
          "midi": 36,
          "time": 92,
          "velocity": 0.7874015748031497,
          "duration": 0.125
        },
        {
          "name": "G#2",
          "midi": 44,
          "time": 92,
          "velocity": 0.4881889763779528,
          "duration": 0.0989583333333286
        },
        {
          "name": "C#2",
          "midi": 37,
          "time": 92.5,
          "velocity": 0.7874015748031497,
          "duration": 0.125
        },
        {
          "name": "G#2",
          "midi": 44,
          "time": 92.5,
          "velocity": 0.7874015748031497,
          "duration": 0.125
        },
        {
          "name": "C2",
          "midi": 36,
          "time": 92.75,
          "velocity": 0.7874015748031497,
          "duration": 0.125
        },
        {
          "name": "G#2",
          "midi": 44,
          "time": 93.25,
          "velocity": 0.7874015748031497,
          "duration": 0.125
        },
        {
          "name": "C#2",
          "midi": 37,
          "time": 93.5,
          "velocity": 0.7874015748031497,
          "duration": 0.125
        },
        {
          "name": "G#2",
          "midi": 44,
          "time": 93.625,
          "velocity": 0.7874015748031497,
          "duration": 0.125
        },
        {
          "name": "C#2",
          "midi": 37,
          "time": 93.75,
          "velocity": 0.7874015748031497,
          "duration": 0.125
        },
        {
          "name": "C2",
          "midi": 36,
          "time": 94,
          "velocity": 0.7874015748031497,
          "duration": 0.125
        },
        {
          "name": "G#2",
          "midi": 44,
          "time": 94,
          "velocity": 0.5354330708661418,
          "duration": 0.0833333333333286
        },
        {
          "name": "C#2",
          "midi": 37,
          "time": 94.5,
          "velocity": 0.7874015748031497,
          "duration": 0.125
        },
        {
          "name": "G#2",
          "midi": 44,
          "time": 94.5,
          "velocity": 0.7874015748031497,
          "duration": 0.125
        },
        {
          "name": "C2",
          "midi": 36,
          "time": 94.75,
          "velocity": 0.7874015748031497,
          "duration": 0.125
        },
        {
          "name": "G#2",
          "midi": 44,
          "time": 94.75,
          "velocity": 0.5118110236220472,
          "duration": 0.0989583333333286
        },
        {
          "name": "G#2",
          "midi": 44,
          "time": 95.25,
          "velocity": 0.7874015748031497,
          "duration": 0.125
        },
        {
          "name": "C#2",
          "midi": 37,
          "time": 95.5,
          "velocity": 0.7874015748031497,
          "duration": 0.125
        },
        {
          "name": "F#2",
          "midi": 42,
          "time": 95.5,
          "velocity": 0.7874015748031497,
          "duration": 0.125
        },
        {
          "name": "C#2",
          "midi": 37,
          "time": 95.625,
          "velocity": 0.7874015748031497,
          "duration": 0.125
        },
        {
          "name": "G#2",
          "midi": 44,
          "time": 95.625,
          "velocity": 0.7874015748031497,
          "duration": 0.125
        },
        {
          "name": "C#2",
          "midi": 37,
          "time": 95.75,
          "velocity": 0.7874015748031497,
          "duration": 0.125
        },
        {
          "name": "C#3",
          "midi": 49,
          "time": 95.75,
          "velocity": 0.7874015748031497,
          "duration": 0.125
        },
        {
          "name": "C#2",
          "midi": 37,
          "time": 95.875,
          "velocity": 0.7874015748031497,
          "duration": 0.125
        },
        {
          "name": "G#2",
          "midi": 44,
          "time": 95.875,
          "velocity": 0.7874015748031497,
          "duration": 0.125
        },
        {
          "name": "C2",
          "midi": 36,
          "time": 96,
          "velocity": 0.7874015748031497,
          "duration": 0.125
        },
        {
          "name": "G#2",
          "midi": 44,
          "time": 96,
          "velocity": 0.4881889763779528,
          "duration": 0.0989583333333286
        },
        {
          "name": "C#2",
          "midi": 37,
          "time": 96.5,
          "velocity": 0.7874015748031497,
          "duration": 0.125
        },
        {
          "name": "G#2",
          "midi": 44,
          "time": 96.5,
          "velocity": 0.7874015748031497,
          "duration": 0.125
        },
        {
          "name": "C2",
          "midi": 36,
          "time": 96.75,
          "velocity": 0.7874015748031497,
          "duration": 0.125
        },
        {
          "name": "G#2",
          "midi": 44,
          "time": 97.25,
          "velocity": 0.7874015748031497,
          "duration": 0.125
        },
        {
          "name": "C#2",
          "midi": 37,
          "time": 97.5,
          "velocity": 0.7874015748031497,
          "duration": 0.125
        },
        {
          "name": "G#2",
          "midi": 44,
          "time": 97.625,
          "velocity": 0.7874015748031497,
          "duration": 0.125
        },
        {
          "name": "C2",
          "midi": 36,
          "time": 98,
          "velocity": 0.7874015748031497,
          "duration": 0.125
        },
        {
          "name": "G#2",
          "midi": 44,
          "time": 98,
          "velocity": 0.5354330708661418,
          "duration": 0.0833333333333286
        },
        {
          "name": "C#2",
          "midi": 37,
          "time": 98.5,
          "velocity": 0.7874015748031497,
          "duration": 0.125
        },
        {
          "name": "C2",
          "midi": 36,
          "time": 98.75,
          "velocity": 0.7874015748031497,
          "duration": 0.125
        },
        {
          "name": "G#2",
          "midi": 44,
          "time": 98.75,
          "velocity": 0.5118110236220472,
          "duration": 0.0989583333333286
        },
        {
          "name": "G#2",
          "midi": 44,
          "time": 99.25,
          "velocity": 0.7874015748031497,
          "duration": 0.125
        },
        {
          "name": "C#2",
          "midi": 37,
          "time": 99.5,
          "velocity": 0.7874015748031497,
          "duration": 0.125
        },
        {
          "name": "F#2",
          "midi": 42,
          "time": 99.5,
          "velocity": 0.7874015748031497,
          "duration": 0.125
        },
        {
          "name": "G#2",
          "midi": 44,
          "time": 99.625,
          "velocity": 0.7874015748031497,
          "duration": 0.125
        },
        {
          "name": "C2",
          "midi": 36,
          "time": 100,
          "velocity": 0.7874015748031497,
          "duration": 0.125
        },
        {
          "name": "G#2",
          "midi": 44,
          "time": 100,
          "velocity": 0.4881889763779528,
          "duration": 0.0989583333333286
        },
        {
          "name": "G#2",
          "midi": 44,
          "time": 100.5,
          "velocity": 0.7874015748031497,
          "duration": 0.125
        },
        {
          "name": "G#2",
          "midi": 44,
          "time": 101.25,
          "velocity": 0.7874015748031497,
          "duration": 0.125
        },
        {
          "name": "G#2",
          "midi": 44,
          "time": 101.625,
          "velocity": 0.7874015748031497,
          "duration": 0.125
        },
        {
          "name": "G#2",
          "midi": 44,
          "time": 102,
          "velocity": 0.5354330708661418,
          "duration": 0.0833333333333286
        },
        {
          "name": "G#2",
          "midi": 44,
          "time": 102.75,
          "velocity": 0.5118110236220472,
          "duration": 0.0989583333333286
        },
        {
          "name": "G#2",
          "midi": 44,
          "time": 103.25,
          "velocity": 0.7874015748031497,
          "duration": 0.125
        },
        {
          "name": "G#2",
          "midi": 44,
          "time": 103.625,
          "velocity": 0.7874015748031497,
          "duration": 0.125
        },
        {
          "name": "C2",
          "midi": 36,
          "time": 104,
          "velocity": 0.7874015748031497,
          "duration": 0.125
        },
        {
          "name": "G#2",
          "midi": 44,
          "time": 104,
          "velocity": 0.4881889763779528,
          "duration": 0.0989583333333286
        },
        {
          "name": "G#2",
          "midi": 44,
          "time": 104.5,
          "velocity": 0.7874015748031497,
          "duration": 0.125
        },
        {
          "name": "G#2",
          "midi": 44,
          "time": 105.25,
          "velocity": 0.7874015748031497,
          "duration": 0.125
        },
        {
          "name": "G#2",
          "midi": 44,
          "time": 105.625,
          "velocity": 0.7874015748031497,
          "duration": 0.125
        },
        {
          "name": "G#2",
          "midi": 44,
          "time": 106,
          "velocity": 0.5354330708661418,
          "duration": 0.0833333333333286
        },
        {
          "name": "G#2",
          "midi": 44,
          "time": 106.75,
          "velocity": 0.5118110236220472,
          "duration": 0.0989583333333286
        },
        {
          "name": "G#2",
          "midi": 44,
          "time": 107.25,
          "velocity": 0.7874015748031497,
          "duration": 0.125
        },
        {
          "name": "G#2",
          "midi": 44,
          "time": 107.625,
          "velocity": 0.7874015748031497,
          "duration": 0.125
        }
      ],
      "controlChanges": {},
      "id": 0,
      "name": "",
      "channelNumber": 0,
      "isPercussion": false
    }
  ]
}
